<svg id="icon-help-grey" xmlns="http://www.w3.org/2000/svg" viewBox="0 0 58.219 58.219">
  <defs>
    <style>
      .cls-1 {
        fill: none;
      }

      .cls-2 {
        fill: #9a9a9a;
      }

      .cls-3 {
        fill: #fff;
      }
    </style>
  </defs>
  <path id="path2382" class="cls-1" d="M17.277,37.487A28.272,28.272,0,0,1-10.995,65.759,28.272,28.272,0,0,1-39.267,37.487,28.272,28.272,0,0,1-10.995,9.215,28.272,28.272,0,0,1,17.277,37.487Z" transform="translate(40.104 -8.378)"/>
  <g id="layer1">
    <path id="path2413" class="cls-2" d="M29.11,0a29.11,29.11,0,1,0,29.11,29.11A29.11,29.11,0,0,0,29.11,0Zm0,3.73A25.38,25.38,0,1,1,3.73,29.11,25.38,25.38,0,0,1,29.11,3.73Zm.428,6.186a16.61,16.61,0,0,0-4.449.6,12.015,12.015,0,0,0-3.748,1.81,12.311,12.311,0,0,0-2.529,2.483,10.261,10.261,0,0,0-2.056,5.44c-.012.136-.02.253-.018.255s6.317.782,6.349.782c.015,0,.033-.068.082-.273a7.266,7.266,0,0,1,3.193-4.894,7.349,7.349,0,0,1,4.593-.864,6.574,6.574,0,0,1,2.148.582,5.41,5.41,0,0,1,2.02,1.692,4.393,4.393,0,0,1,.8,2.128,6.286,6.286,0,0,1-.009.937,4.294,4.294,0,0,1-.437,1.446,3.9,3.9,0,0,1-.8,1.11,40.722,40.722,0,0,1-3.138,2.738,25.1,25.1,0,0,0-2.364,2.138,8.62,8.62,0,0,0-2.493,4.285,14.464,14.464,0,0,0-.337,3.84c.007.408.018.795.018.865v.125H32.65l.009-.7a12.844,12.844,0,0,1,.163-2.157,3.929,3.929,0,0,1,1.147-2.273,19.127,19.127,0,0,1,2.017-1.883c1.389-1.162,2.361-2.035,3.278-2.947a12.109,12.109,0,0,0,2.7-3.548,7.77,7.77,0,0,0,.716-2.775c.017-.238.02-.882,0-1.155a9.053,9.053,0,0,0-2.372-5.54c-.233-.265-.809-.84-1.083-1.082a11.906,11.906,0,0,0-5.112-2.647,17.181,17.181,0,0,0-3.886-.509c-.227-.007-.463-.01-.69-.009ZM26.362,40.073v6.4h6.4v-6.4Z"/>
  </g>
  <g id="Group_10" data-name="Group 10" transform="translate(2.233 2.343)">
    <g id="Group_1" data-name="Group 1">
      <path id="Path_7" data-name="Path 7" class="cls-3" d="M26.814,0A26.722,26.722,0,1,0,53.628,26.722,26.771,26.771,0,0,0,26.814,0Zm0,51.15A24.428,24.428,0,1,1,51.326,26.722,24.478,24.478,0,0,1,26.814,51.15Z"/>
    </g>
  </g>
</svg>
