<svg id="svgGroup" width="269.7" xmlns="http://www.w3.org/2000/svg" viewBox="0 0 300 300">
  <defs>
    <style>
      .cls-1 {
        fill: none;
      }

      .cls-2 {
        fill: #fff;
        
      }
    </style>
  </defs>
  <!-- <path id="path2382" class="cls-1" d="M154.979,106.338A97.123,97.123,0,1,1,57.856,9.215a97.123,97.123,0,0,1,97.123,97.123Z" transform="translate(42.143 -6.339)"/> -->
  <path  class="cls-2" d="M 59.67 85.68 L 61.47 78.93 Q 62.389 79.466 63.698 79.872 A 16.69 16.69 0 0 0 64.17 80.01 A 12.162 12.162 0 0 0 66.221 80.386 A 15.622 15.622 0 0 0 67.77 80.46 Q 71.55 80.46 74.52 78.03 A 10.803 10.803 0 0 0 76.26 76.175 Q 77.833 74.095 79.327 70.628 A 52.722 52.722 0 0 0 80.19 68.49 L 82.26 63.09 L 77.94 63.09 L 59.67 21.96 L 66.87 18.72 L 84.33 57.69 L 97.92 19.08 L 105.39 21.96 L 88.2 68.94 Q 86.366 73.999 84.31 77.503 A 27.774 27.774 0 0 1 82.53 80.19 Q 79.697 83.939 76.324 85.606 A 13.264 13.264 0 0 1 75.78 85.86 Q 72.09 87.48 67.59 87.48 A 22.877 22.877 0 0 1 65.357 87.377 Q 64.258 87.269 63.3 87.048 A 13.129 13.129 0 0 1 62.865 86.94 A 18.294 18.294 0 0 1 61.574 86.547 Q 60.97 86.338 60.471 86.106 A 7.753 7.753 0 0 1 59.67 85.68 Z M 113.04 50.22 L 113.04 19.8 L 121.14 19.8 L 121.14 49.14 A 20.683 20.683 0 0 0 121.369 52.321 Q 121.871 55.544 123.48 57.555 A 7.564 7.564 0 0 0 128.082 60.274 A 11.526 11.526 0 0 0 130.32 60.48 Q 134.01 60.48 137.475 58.995 Q 140.94 57.51 143.64 54.99 L 143.64 19.8 L 151.74 19.8 L 151.74 54.45 A 14.041 14.041 0 0 0 151.831 56.118 Q 152.046 57.9 152.761 58.883 A 2.943 2.943 0 0 0 153.405 59.535 Q 155.07 60.75 157.05 60.75 L 155.34 67.05 Q 146.982 67.05 144.996 60.41 A 11.864 11.864 0 0 1 144.99 60.39 Q 141.84 63.63 137.7 65.655 Q 133.56 67.68 128.79 67.68 Q 124.74 67.68 121.14 65.97 A 12.997 12.997 0 0 1 116.181 61.795 A 16.44 16.44 0 0 1 115.29 60.435 Q 113.04 56.61 113.04 50.22 Z M 58.32 64.35 L 50.49 67.5 L 43.47 49.5 L 14.31 49.5 L 7.29 67.32 L 0 64.35 L 24.66 3.6 L 34.02 3.6 L 58.32 64.35 Z M 28.89 12.06 L 17.01 42.3 L 40.68 42.3 L 28.89 12.06 Z M 198.81 24.48 L 198.81 0 L 206.91 0 L 206.91 55.26 A 10.935 10.935 0 0 0 207.001 56.732 Q 207.232 58.425 208.047 59.283 A 2.669 2.669 0 0 0 208.575 59.715 Q 210.24 60.75 212.22 60.75 L 210.51 67.05 Q 202.065 67.05 200.118 60.377 A 12.07 12.07 0 0 1 200.07 60.21 Q 198.119 62.959 194.639 65.271 A 29.03 29.03 0 0 1 194.535 65.34 Q 191.178 67.55 186.175 67.673 A 24.225 24.225 0 0 1 185.58 67.68 Q 179.82 67.68 175.05 64.71 A 20.423 20.423 0 0 1 168.266 57.698 A 24.86 24.86 0 0 1 167.49 56.295 A 24.779 24.779 0 0 1 165.16 49.147 A 33.499 33.499 0 0 1 164.7 43.47 A 30.546 30.546 0 0 1 165.5 36.347 A 25.167 25.167 0 0 1 167.535 30.78 A 24.562 24.562 0 0 1 171.692 24.848 A 21.767 21.767 0 0 1 175.095 21.96 Q 179.82 18.72 185.49 18.72 Q 190.17 18.72 193.545 20.61 A 30.909 30.909 0 0 1 195.867 22.04 Q 197.629 23.242 198.81 24.48 Z M 198.81 54.81 L 198.81 31.59 A 14.263 14.263 0 0 0 196.91 29.634 Q 195.901 28.768 194.642 27.96 A 25.326 25.326 0 0 0 194.04 27.585 Q 190.98 25.74 187.29 25.74 A 13.452 13.452 0 0 0 182.83 26.46 A 12.046 12.046 0 0 0 179.73 28.08 A 15.021 15.021 0 0 0 175.077 33.615 A 17.932 17.932 0 0 0 174.735 34.335 A 19.971 19.971 0 0 0 173.169 40.063 A 25.302 25.302 0 0 0 172.98 43.2 A 22.281 22.281 0 0 0 173.513 48.167 A 18.295 18.295 0 0 0 174.87 52.065 A 16.384 16.384 0 0 0 177.606 56.127 A 14.51 14.51 0 0 0 180.045 58.23 Q 183.33 60.48 187.38 60.48 Q 190.71 60.48 193.725 58.905 Q 196.74 57.33 198.81 54.81 Z M 255.06 23.58 L 255.06 19.8 L 262.44 19.8 L 262.44 55.26 A 10.935 10.935 0 0 0 262.531 56.732 Q 262.762 58.425 263.577 59.283 A 2.669 2.669 0 0 0 264.105 59.715 Q 265.77 60.75 267.75 60.75 L 266.04 67.05 Q 257.613 67.05 255.693 60.372 A 12.231 12.231 0 0 1 255.6 60.03 A 19.176 19.176 0 0 1 252.801 63.113 A 25.648 25.648 0 0 1 249.975 65.295 Q 246.634 67.536 241.585 67.671 A 24.485 24.485 0 0 1 240.93 67.68 Q 235.08 67.68 230.31 64.71 A 20.652 20.652 0 0 1 223.638 57.936 A 25.13 25.13 0 0 1 222.705 56.295 Q 219.87 50.85 219.87 43.47 A 29.828 29.828 0 0 1 220.767 36.028 A 25.171 25.171 0 0 1 222.705 30.87 Q 225.54 25.29 230.535 22.005 A 20.068 20.068 0 0 1 240.61 18.759 A 24.649 24.649 0 0 1 242.01 18.72 A 20.326 20.326 0 0 1 246.324 19.161 A 16.833 16.833 0 0 1 249.345 20.115 A 23.402 23.402 0 0 1 253.203 22.179 A 19.893 19.893 0 0 1 255.06 23.58 Z M 254.34 54.63 L 254.34 29.52 Q 251.91 27.81 248.985 26.775 Q 246.06 25.74 242.82 25.74 A 14.332 14.332 0 0 0 238.346 26.418 A 12.621 12.621 0 0 0 235.215 27.945 A 14.671 14.671 0 0 0 230.698 32.826 A 17.966 17.966 0 0 0 230.04 34.065 A 18.597 18.597 0 0 0 228.462 39.174 A 24.91 24.91 0 0 0 228.15 43.2 Q 228.15 48.24 230.04 52.155 Q 231.93 56.07 235.26 58.275 Q 238.59 60.48 242.73 60.48 Q 246.15 60.48 249.21 58.815 A 17.505 17.505 0 0 0 253.458 55.618 A 16.264 16.264 0 0 0 254.34 54.63 Z" vector-effect="non-scaling-stroke"/>
 
</svg>


