<svg id="icon-assistant-jose" xmlns="http://www.w3.org/2000/svg" viewBox="0 0 28 31.456">
  <defs>
    <style>
      .cls-1 {
        fill: #fff;
      }
    </style>
  </defs>
  <g id="icono">
    <path id="Combined-Shape" class="cls-1" d="M27.989,24.3v6.2a.953.953,0,0,1-1.628.677L23.2,28H4a4,4,0,0,1-4-4V4A4,4,0,0,1,4,0H24a4,4,0,0,1,4,4V24Q28,24.149,27.989,24.3ZM6.21,20.348a24.318,24.318,0,0,0,15.783.01,1,1,0,1,0-.605-1.906,22.325,22.325,0,0,1-14.515.01,1,1,0,0,0-.663,1.887ZM7.5,15A1.5,1.5,0,1,0,6,13.5,1.5,1.5,0,0,0,7.5,15Zm13,0A1.5,1.5,0,1,0,19,13.5,1.5,1.5,0,0,0,20.5,15Z"/>
  </g>
</svg>
