<?xml version="1.0" encoding="UTF-8"?>
<svg xmlns="http://www.w3.org/2000/svg" viewBox="0 0 28 31.457" xmlns:xlink="http://www.w3.org/1999/xlink">
  <defs>
    <style>
      .cls-1 {
        fill: #fff;
      }

      .cls-2 {
        fill: none;
        stroke: #2979ff;
        stroke-linecap: round;
        stroke-linejoin: bevel;
        stroke-width: 2px;
      }

      .cls-3 {
        fill: #2979ff;
      }

      .cls-4, .cls-5 {
        stroke: none;
      }

      .cls-5 {
        fill: #ddd;
      }
    </style>
  </defs>
  <g id="icono-cognitiva-2" transform="translate(-10 -10)">
    <g id="Artboard" transform="translate(-80 -60)">
      <g id="icono" transform="translate(90 70)">
        <g id="Combined-Shape">
          <g id="Path_1" data-name="Path 1">
            <path class="cls-4" d="M 27.03622055053711 31.3572940826416 C 26.80771064758301 31.3572940826416 26.59306907653809 31.2681941986084 26.43182945251465 31.10641479492188 L 23.27088928222656 27.92947387695312 L 23.24156951904297 27.90000534057617 L 23.20000076293945 27.90000534057617 L 4 27.90000534057617 C 1.849529981613159 27.90000534057617 0.1000000014901161 26.15047454833984 0.1000000014901161 24.00000381469727 L 0.1000000014901161 4.000004291534424 C 0.1000000014901161 1.849534511566162 1.849529981613159 0.1000045090913773 4 0.1000045090913773 L 24 0.1000045090913773 C 26.15047073364258 0.1000045090913773 27.89999961853027 1.849534511566162 27.89999961853027 4.000004291534424 L 27.89999961853027 24.00000381469727 C 27.89999961853027 24.09641456604004 27.89639091491699 24.19490432739258 27.88925933837891 24.29274368286133 L 27.88899993896484 24.29636383056641 L 27.88899993896484 24.30000495910645 L 27.88899993896484 30.50000381469727 C 27.89056015014648 30.84784507751465 27.68429946899414 31.15849494934082 27.36352920532227 31.29187393188477 C 27.2591495513916 31.33528518676758 27.1490306854248 31.3572940826416 27.03622055053711 31.3572940826416 Z"/>
            <path class="cls-5" d="M 27.03622055053711 31.25729370117188 C 27.13578987121582 31.25729370117188 27.23299026489258 31.23786544799805 27.32513999938965 31.19954490661621 C 27.60829925537109 31.08179473876953 27.79037094116211 30.80756378173828 27.78899955749512 30.50000381469727 L 27.78899955749512 24.30000495910645 L 27.78899955749512 24.29273414611816 L 27.78952980041504 24.28548431396484 C 27.79648017883301 24.19004440307617 27.79999923706055 24.09400367736816 27.79999923706055 24.00000381469727 L 27.79999923706055 4.000004291534424 C 27.79999923706055 1.904674530029297 26.09532928466797 0.2000045031309128 24 0.2000045031309128 L 4 0.2000045031309128 C 1.904670000076294 0.2000045031309128 0.2000000029802322 1.904674530029297 0.2000000029802322 4.000004291534424 L 0.2000000029802322 24.00000381469727 C 0.2000000029802322 26.09533500671387 1.904670000076294 27.80000495910645 4 27.80000495910645 L 23.20000076293945 27.80000495910645 L 23.28314018249512 27.80000495910645 L 23.3417797088623 27.85894393920898 L 26.50266075134277 31.03581428527832 C 26.64500045776367 31.17864418029785 26.8344898223877 31.25729370117188 27.03622055053711 31.25729370117188 M 27.03621864318848 31.45729827880859 C 26.78767013549805 31.45729827880859 26.54343795776367 31.36005783081055 26.36100006103516 31.17700386047363 L 23.20000076293945 28.00000381469727 L 4 28.00000381469727 C 1.790860056877136 28.00000381469727 -1.77635683940025e-15 26.20913505554199 -1.77635683940025e-15 24.00000381469727 L -1.77635683940025e-15 4.000004291534424 C -1.77635683940025e-15 1.79086446762085 1.790860056877136 4.506530785874929e-06 4 4.506530785874929e-06 L 24 4.506530785874929e-06 C 26.20914077758789 4.506530785874929e-06 28 1.79086446762085 28 4.000004291534424 L 28 24.00000381469727 C 28 24.09933471679688 27.99633026123047 24.1993350982666 27.98900032043457 24.30000495910645 L 27.98900032043457 30.50000381469727 C 27.99073028564453 30.88651466369629 27.75882911682129 31.23580360412598 27.40192985534668 31.38421440124512 C 27.28367042541504 31.43339538574219 27.15939331054688 31.45729827880859 27.03621864318848 31.45729827880859 Z"/>
          </g>
          <g id="Path_2" data-name="Path 2" class="cls-1">
            <path class="cls-4" d="M 27.03622055053711 31.3572940826416 C 26.80771064758301 31.3572940826416 26.59306907653809 31.2681941986084 26.43182945251465 31.10641479492188 L 23.27088928222656 27.92947387695312 L 23.24156951904297 27.90000534057617 L 23.20000076293945 27.90000534057617 L 4 27.90000534057617 C 1.849529981613159 27.90000534057617 0.1000000014901161 26.15047454833984 0.1000000014901161 24.00000381469727 L 0.1000000014901161 4.000004291534424 C 0.1000000014901161 1.849534511566162 1.849529981613159 0.1000045090913773 4 0.1000045090913773 L 24 0.1000045090913773 C 26.15047073364258 0.1000045090913773 27.89999961853027 1.849534511566162 27.89999961853027 4.000004291534424 L 27.89999961853027 24.00000381469727 C 27.89999961853027 24.09641456604004 27.89639091491699 24.19490432739258 27.88925933837891 24.29274368286133 L 27.88899993896484 24.29636383056641 L 27.88899993896484 24.30000495910645 L 27.88899993896484 30.50000381469727 C 27.89056015014648 30.84784507751465 27.68429946899414 31.15849494934082 27.36352920532227 31.29187393188477 C 27.2591495513916 31.33528518676758 27.1490306854248 31.3572940826416 27.03622055053711 31.3572940826416 Z"/>
            <path class="cls-5" d="M 27.03622055053711 31.25729370117188 C 27.13578987121582 31.25729370117188 27.23299026489258 31.23786544799805 27.32513999938965 31.19954490661621 C 27.60829925537109 31.08179473876953 27.79037094116211 30.80756378173828 27.78899955749512 30.50000381469727 L 27.78899955749512 24.30000495910645 L 27.78899955749512 24.29273414611816 L 27.78952980041504 24.28548431396484 C 27.79648017883301 24.19004440307617 27.79999923706055 24.09400367736816 27.79999923706055 24.00000381469727 L 27.79999923706055 4.000004291534424 C 27.79999923706055 1.904674530029297 26.09532928466797 0.2000045031309128 24 0.2000045031309128 L 4 0.2000045031309128 C 1.904670000076294 0.2000045031309128 0.2000000029802322 1.904674530029297 0.2000000029802322 4.000004291534424 L 0.2000000029802322 24.00000381469727 C 0.2000000029802322 26.09533500671387 1.904670000076294 27.80000495910645 4 27.80000495910645 L 23.20000076293945 27.80000495910645 L 23.28314018249512 27.80000495910645 L 23.3417797088623 27.85894393920898 L 26.50266075134277 31.03581428527832 C 26.64500045776367 31.17864418029785 26.8344898223877 31.25729370117188 27.03622055053711 31.25729370117188 M 27.03621864318848 31.45729827880859 C 26.78767013549805 31.45729827880859 26.54343795776367 31.36005783081055 26.36100006103516 31.17700386047363 L 23.20000076293945 28.00000381469727 L 4 28.00000381469727 C 1.790860056877136 28.00000381469727 -1.77635683940025e-15 26.20913505554199 -1.77635683940025e-15 24.00000381469727 L -1.77635683940025e-15 4.000004291534424 C -1.77635683940025e-15 1.79086446762085 1.790860056877136 4.506530785874929e-06 4 4.506530785874929e-06 L 24 4.506530785874929e-06 C 26.20914077758789 4.506530785874929e-06 28 1.79086446762085 28 4.000004291534424 L 28 24.00000381469727 C 28 24.09933471679688 27.99633026123047 24.1993350982666 27.98900032043457 24.30000495910645 L 27.98900032043457 30.50000381469727 C 27.99073028564453 30.88651466369629 27.75882911682129 31.23580360412598 27.40192985534668 31.38421440124512 C 27.28367042541504 31.43339538574219 27.15939331054688 31.45729827880859 27.03621864318848 31.45729827880859 Z"/>
          </g>
        </g>
        <path id="Line" class="cls-2" d="M6.541,19.4a23.322,23.322,0,0,0,15.149,0"/>
        <circle id="Oval-2" class="cls-3" cx="1.5" cy="1.5" r="1.5" transform="translate(6 12)"/>
        <circle id="Oval-2-2" data-name="Oval-2" class="cls-3" cx="1.5" cy="1.5" r="1.5" transform="translate(19 12)"/>
      </g>
    </g>
  </g>
</svg>
