<svg xmlns="http://www.w3.org/2000/svg" viewBox="0 0 45.24 76.231">
  <defs>
    <style>
      .cls-1 {
        fill: #0061a0;
      }
    </style>
  </defs>
  <g id="utility-2_question_16p" transform="translate(-12.215 63.231)">
    <path id="Path_1" data-name="Path 1" class="cls-1" d="M21.106,54.38q-.2-.99-.3-2-.1-1.045-.1-2.1A17.427,17.427,0,0,1,22.47,42.65a19.418,19.418,0,0,1,5.937-6.843l4.676-3.593a9.6,9.6,0,0,0,4.182-7.891,9.94,9.94,0,0,0-.583-3.348,7.869,7.869,0,0,0-1.8-2.9,8.888,8.888,0,0,0-3.064-2,11.358,11.358,0,0,0-4.285-.753,9.313,9.313,0,0,0-4.477,1,9.708,9.708,0,0,0-3.064,2.546,10.329,10.329,0,0,0-1.8,3.593,15.087,15.087,0,0,0-.583,4.142,10.631,10.631,0,0,0,.391,3.192L5.72,29.315a12.916,12.916,0,0,1-.391-2.243q-.1-1.146-.1-2.243a21.915,21.915,0,0,1,1.46-7.842A19.927,19.927,0,0,1,10.979,10.2a21.18,21.18,0,0,1,6.959-4.739,23.871,23.871,0,0,1,9.576-1.8,26.846,26.846,0,0,1,9.927,1.694A22.467,22.467,0,0,1,44.623,9.8,17.847,17.847,0,0,1,49,16.145a19.455,19.455,0,0,1,1.46,7.367,19.06,19.06,0,0,1-2.625,10.232,26.435,26.435,0,0,1-7.007,7.441l-3.942,2.939A14.328,14.328,0,0,0,33,48.363a10.614,10.614,0,0,0-1.365,5.443v.6ZM18.863,72a7.872,7.872,0,0,1,2.242-5.64,7.253,7.253,0,0,1,5.45-2.349A7.915,7.915,0,0,1,34.345,72a7.627,7.627,0,0,1-2.29,5.591,7.673,7.673,0,0,1-10.952,0A7.946,7.946,0,0,1,18.863,72Z" transform="translate(6.982 -66.887)"/>
  </g>
</svg>
