<?xml version="1.0" encoding="utf-8"?>
<!-- Generator: Adobe Illustrator 19.2.1, SVG Export Plug-In . SVG Version: 6.00 Build 0)  -->
<svg version="1.1" id="Layer_1" xmlns="http://www.w3.org/2000/svg" xmlns:xlink="http://www.w3.org/1999/xlink" x="0px" y="0px"
	 viewBox="0 0 105.5 75.1" style="enable-background:new 0 0 105.5 75.1;" xml:space="preserve">
<style type="text/css">
	.st0{fill:none;stroke:#58595B;stroke-width:0.5;stroke-miterlimit:10;}
	.st1{fill:none;stroke:#58595B;stroke-width:0.5;stroke-miterlimit:10;stroke-dasharray:1.506,1.506;}
	.st2{fill:#1C75BC;}
	.st3{fill:#FFFFFF;}
</style>
<line class="st0" x1="-146.3" y1="381.3" x2="-145.3" y2="381.3"/>
<line class="st1" x1="-143.8" y1="381.3" x2="-141.5" y2="381.3"/>
<polyline class="st0" points="-140.8,381.3 -139.8,381.3 -139.8,380.3 "/>
<rect x="-153.5" y="443.4" class="st2" width="2.2" height="1.8"/>
<g>
	<rect x="-282.3" y="443.4" class="st3" width="2.4" height="11"/>
	<path class="st3" d="M-271.6,448.4c1-0.5,1.5-1.2,1.5-2.3c0-2-1.4-2.7-3.5-2.7h-5.2v11h5.3c2,0,3.9-1,3.9-3.2
		C-269.6,449.8-270.3,448.8-271.6,448.4 M-276.4,445.2h2.3c0.9,0,1.7,0.2,1.7,1.3c0,0.9-0.6,1.3-1.5,1.3h-2.4V445.2z M-273.8,452.5
		h-2.6v-3h2.6c1,0,1.7,0.4,1.7,1.6C-272,452.1-272.8,452.5-273.8,452.5"/>
	<polygon class="st3" points="-263,450.9 -263,450.9 -265.5,443.4 -268.9,443.4 -268.9,454.3 -266.7,454.3 -266.7,446.6 
		-266.7,446.6 -264,454.3 -262.1,454.3 -259.4,446.6 -259.4,446.6 -259.4,454.3 -257.1,454.3 -257.1,443.4 -260.5,443.4 	"/>
	<polygon class="st3" points="-241.7,443.4 -243.5,450.9 -243.5,450.9 -245.4,443.4 -247.6,443.4 -249.5,450.8 -249.6,450.8 
		-251.3,443.4 -253.7,443.4 -250.8,454.3 -248.4,454.3 -246.5,446.9 -246.5,446.9 -244.6,454.3 -242.2,454.3 -239.3,443.4 	"/>
	<path class="st3" d="M-232.8,448.4c0-1.9-1.9-2.3-3.5-2.3c-1.8,0-3.6,0.6-3.7,2.7h2.2c0.1-0.9,0.6-1.2,1.4-1.2
		c0.8,0,1.4,0.1,1.4,1.1c0,0.9-1.2,0.8-2.6,1c-1.4,0.2-2.7,0.6-2.7,2.4c0,1.6,1.2,2.4,2.7,2.4c1,0,2-0.3,2.7-1
		c0,0.3,0.1,0.5,0.2,0.8h2.2c-0.2-0.3-0.3-1-0.3-1.8V448.4z M-235,451.3c0,0.5-0.1,1.8-1.8,1.8c-0.7,0-1.3-0.2-1.3-1
		c0-0.8,0.6-1,1.3-1.2c0.7-0.1,1.4-0.1,1.8-0.5V451.3z"/>
	<path class="st3" d="M-223.2,449.6c-1.2-0.3-2.5-0.4-2.5-1.2c0-0.6,0.7-0.7,1.2-0.7c0.8,0,1.4,0.2,1.5,1.1h2.1
		c-0.2-2-1.8-2.5-3.5-2.5c-1.7,0-3.5,0.5-3.5,2.5c0,1.4,1.3,1.8,2.5,2.1c1.6,0.3,2.5,0.6,2.5,1.2c0,0.8-0.8,1-1.4,1
		c-0.9,0-1.7-0.4-1.7-1.3h-2.1c0,0.3,0.1,0.6,0.2,0.9c-0.2,0-0.4,0-0.6,0c-0.7,0-0.9-0.2-0.9-0.9v-3.9h1.6v-1.5h-1.6V444h-2.2v2.4
		h-1.3v1.5h1.3v4.7c0,1.6,1.2,1.9,2.5,1.9c0.4,0,0.9,0,1.3-0.1v-1.4c0.6,1.2,2,1.6,3.4,1.6c1.8,0,3.6-0.7,3.6-2.8
		C-220.7,450.3-222,449.8-223.2,449.6"/>
	<path class="st3" d="M-216.6,446.2c-2.5,0-4.1,1.7-4.1,4.2c0,2.5,1.6,4.2,4.1,4.2c2.5,0,4.1-1.7,4.1-4.2
		C-212.4,447.8-214.1,446.2-216.6,446.2 M-216.6,452.9c-1.5,0-1.9-1.3-1.9-2.5c0-1.3,0.4-2.6,1.9-2.6c1.5,0,1.9,1.3,1.9,2.6
		C-214.6,451.6-215.1,452.9-216.6,452.9"/>
	<path class="st3" d="M-207.4,446.2c-0.9,0-1.9,0.4-2.4,1.3h0v-1.1h-2.1v7.9h2.2v-4.2c0-1.6,0.5-2.3,1.7-2.3c1,0,1.4,0.6,1.4,1.9
		v4.5h2.2v-4.9C-204.5,447.5-205.1,446.2-207.4,446.2"/>
	<path class="st3" d="M-188.8,444h-2.2v2.4h-1.2c-0.1-2.3-2.2-3.3-4.4-3.3c-2,0-4.1,1.1-4.1,3.3c0,2.1,1.6,2.7,3.3,3.1
		c1.6,0.4,3.3,0.6,3.3,1.8c0,1.1-1.3,1.4-2.1,1.4c-1.3,0-2.4-0.6-2.4-2h-2.3c0,2.7,2.2,3.9,4.7,3.9c3,0,4.6-1.5,4.6-3.5
		c0-2.5-2.5-3-3.3-3.2c-2.7-0.7-3.3-0.8-3.3-1.7c0-0.9,0.9-1.2,1.7-1.2c1.2,0,2.1,0.3,2.2,1.7h2.2v1.2h1.3v4.7
		c0,1.6,1.2,1.9,2.5,1.9c0.4,0,0.9,0,1.3-0.1v-1.7c-0.2,0-0.4,0.1-0.7,0.1c-0.7,0-0.9-0.2-0.9-0.9v-3.9h1.6v-1.5h-1.6V444z"/>
	<path class="st3" d="M-175,448.4c0-1.9-1.9-2.3-3.5-2.3c-1.5,0-3,0.4-3.5,1.8v-1.7c-0.1,0-0.3-0.1-0.5-0.1c-1.1,0-2.1,0.7-2.5,1.7
		h0v-1.5h-2.1v7.9h2.2v-3.6c0-1.4,0.6-2.5,2.1-2.5c0.2,0,0.5,0,0.7,0.1c0,0.2-0.1,0.4-0.1,0.6h2.2c0.1-0.9,0.6-1.2,1.4-1.2
		c0.8,0,1.4,0.1,1.4,1.1c0,0.9-1.2,0.8-2.6,1c-1.4,0.2-2.7,0.6-2.7,2.4c0,1.6,1.2,2.4,2.7,2.4c1,0,2-0.3,2.7-1
		c0,0.3,0.1,0.5,0.2,0.8h2.2c-0.2-0.3-0.3-1-0.3-1.8V448.4z M-177.2,451.3c0,0.5-0.1,1.8-1.8,1.8c-0.7,0-1.3-0.2-1.3-1
		c0-0.8,0.6-1,1.3-1.2c0.7-0.1,1.4-0.1,1.8-0.5V451.3z"/>
	<path class="st3" d="M-171.5,451.8v-3.9h1.6v-1.5h-1.6V444h-2.2v2.4h-1.3v1.5h1.3v4.7c0,1.6,1.2,1.9,2.5,1.9c0.4,0,0.9,0,1.3-0.1
		v-1.7c-0.2,0-0.4,0.1-0.7,0.1C-171.3,452.7-171.5,452.5-171.5,451.8"/>
	<path class="st3" d="M-166.2,446.2c-2.4,0-4.1,1.8-4.1,4.2c0,2.5,1.6,4.2,4.1,4.2c1.8,0,3.1-0.8,3.7-2.7h-1.9c-0.1,0.5-0.8,1-1.7,1
		c-1.2,0-1.9-0.6-2-2h5.7C-162.2,448.4-163.5,446.2-166.2,446.2 M-168,449.5c0-0.6,0.4-1.7,1.8-1.7c1.1,0,1.5,0.6,1.7,1.7H-168z"/>
	<path class="st3" d="M-156.4,447.5L-156.4,447.5c-0.6-0.9-1.3-1.3-2.4-1.3c-2.2,0-3.4,1.9-3.4,3.9c0,2.2,1,4,3.4,4
		c1,0,1.9-0.4,2.4-1.2h0v1c0,1.1-0.5,2-1.7,2c-0.8,0-1.4-0.3-1.6-1.1h-2.2c0.1,1.8,1.9,2.5,3.5,2.5c3.7,0,4.1-2.2,4.1-3.5v-7.4h-2.1
		V447.5z M-158.3,452.5c-1.3,0-1.8-1.2-1.8-2.4c0-1.2,0.5-2.3,1.8-2.3c1.4,0,1.9,1.2,1.9,2.4C-156.4,451.4-157.1,452.5-158.3,452.5"
		/>
	<rect x="-153.5" y="446.4" class="st3" width="2.2" height="7.9"/>
	<path class="st3" d="M-146.9,452.9c-1.4,0-1.8-1.4-1.8-2.5c0-1.2,0.5-2.6,1.9-2.6c0.9,0,1.5,0.5,1.6,1.4h2.1c-0.1-2-1.9-3-3.7-3
		c-2.6,0-4.1,1.8-4.1,4.3c0,2.4,1.6,4.1,4,4.1c2.1,0,3.5-1.2,3.8-3.3h-2.1C-145.3,452.3-145.8,452.9-146.9,452.9"/>
	<path class="st3" d="M-134.3,443.4h-4.9v11h2.4v-3.9h2.5c2.7,0,3.8-1.7,3.8-3.5C-130.5,445.1-131.5,443.4-134.3,443.4
		 M-134.9,448.5h-1.9v-3.3h1.9c1.1,0,2.1,0.2,2.1,1.6C-132.8,448.3-133.8,448.5-134.9,448.5"/>
	<path class="st3" d="M-123.1,448.4c0-1.9-1.9-2.3-3.5-2.3c-1.8,0-3.6,0.6-3.7,2.7h2.2c0.1-0.9,0.6-1.2,1.4-1.2
		c0.8,0,1.4,0.1,1.4,1.1c0,0.9-1.2,0.8-2.6,1c-1.4,0.2-2.7,0.6-2.7,2.4c0,1.6,1.2,2.4,2.7,2.4c1,0,2-0.3,2.7-1
		c0,0.3,0.1,0.5,0.2,0.8h2.2c-0.2-0.3-0.3-1-0.3-1.8V448.4z M-125.2,451.3c0,0.5-0.1,1.8-1.8,1.8c-0.7,0-1.3-0.2-1.3-1
		c0-0.8,0.6-1,1.3-1.2c0.7-0.1,1.4-0.1,1.8-0.5V451.3z"/>
	<path class="st3" d="M-114.6,444h-2.2v2.4h-0.5v-0.1c-0.1,0-0.3-0.1-0.5-0.1c-1.1,0-2.1,0.7-2.5,1.7h0v-1.5h-2.1v7.9h2.2v-3.6
		c0-1.4,0.6-2.5,2.1-2.5c0.3,0,0.6,0,0.8,0.1v-0.4h0.5v4.7c0,1.6,1.2,1.9,2.5,1.9c0.4,0,0.9,0,1.3-0.1v-1.7c-0.2,0-0.4,0.1-0.7,0.1
		c-0.7,0-0.9-0.2-0.9-0.9v-3.9h1.6v-1.5h-1.6V444z"/>
	<path class="st3" d="M-108.4,446.2c-0.9,0-1.9,0.4-2.4,1.3h0v-1.1h-2.1v7.9h2.2v-4.2c0-1.6,0.5-2.3,1.7-2.3c1,0,1.4,0.6,1.4,1.9
		v4.5h2.2v-4.9C-105.4,447.5-106,446.2-108.4,446.2"/>
	<path class="st3" d="M-101.1,446.2c-2.4,0-4.1,1.8-4.1,4.2c0,2.5,1.6,4.2,4.1,4.2c1.8,0,3.1-0.8,3.7-2.7h-1.9c-0.1,0.5-0.8,1-1.7,1
		c-1.2,0-1.9-0.6-1.9-2h5.7C-97.1,448.4-98.4,446.2-101.1,446.2 M-103,449.5c0-0.6,0.4-1.7,1.8-1.7c1.1,0,1.5,0.6,1.7,1.7H-103z"/>
	<path class="st3" d="M-92.3,446.2c-1.1,0-2.1,0.7-2.5,1.7h0v-1.5h-2.1v7.9h2.2v-3.6c0-1.4,0.6-2.5,2.1-2.5c0.3,0,0.6,0,0.8,0.1v-2
		C-91.9,446.2-92.1,446.2-92.3,446.2"/>
</g>
<g>
	<path class="st3" d="M-236.5,386.7c0,3,2.4,5.4,5.4,5.4s5.4-2.4,5.4-5.4c0-3-2.4-5.4-5.4-5.4S-236.5,383.8-236.5,386.7"/>
	<path class="st3" d="M-410.2,428.4c-11.4,0-15.7-9.7-15.7-19.3c0-10.1,4.3-19.8,15.7-19.8c6.3,0,11.8,4.4,12.6,10.1h12.3
		c-1.5-13.3-12.2-20.7-24.8-20.7c-17.8,0-28.3,13.3-28.3,30.4c0,16.6,10.5,29.9,28.3,29.9c14.1,0,24-9.2,25.3-23.6h-12.3
		C-398.1,423.1-402.5,428.4-410.2,428.4"/>
	<path class="st3" d="M-358.8,394.9c-13.1,0-21.5,8.7-21.5,22c0,13.2,8.5,21.9,21.5,21.9c13.1,0,21.6-8.7,21.6-21.9
		C-337.1,403.6-345.6,394.9-358.8,394.9 M-358.8,430.2c-7.7,0-10.1-6.7-10.1-13.3c0-6.7,2.3-13.4,10.1-13.4
		c7.8,0,10.2,6.7,10.2,13.4C-348.6,423.5-350.9,430.2-358.8,430.2"/>
	<path class="st3" d="M-302.1,401.6h-0.2c-2.7-4.8-6.9-6.7-12.4-6.7c-11.7,0-17.9,9.8-17.9,20.7c0,11.5,5.3,21,17.8,21
		c5,0,10-2.1,12.5-6.5h0.2v5.5c0.1,6-2.8,10.3-9.2,10.3c-4,0-7.5-1.5-8.6-5.7h-11.4c0.6,9.5,10.2,13.4,18.4,13.4
		c19.2,0,21.6-11.6,21.6-18.5v-39h-10.9V401.6z M-311.8,427.9c-7,0-9.3-6.5-9.3-12.5c0-6.2,2.8-11.9,9.3-11.9c7.4,0,9.8,6,9.8,12.8
		C-302.1,422.3-305.3,427.9-311.8,427.9"/>
	<path class="st3" d="M-244.4,437.7v-25.7c0-10.3-3.1-17.2-15.2-17.2c-4.8,0-9.8,2.3-12.7,6.9h-0.2V396h-10.9v41.7h11.5v-21.9
		c0-8.5,2.7-11.9,8.9-11.9c5.3,0,7.3,3.4,7.3,10.2v23.6H-244.4z"/>
	<rect x="-236.9" y="396" class="st3" width="11.5" height="41.7"/>
	<path class="st3" d="M-195,428.8c-1.2,0.2-2.3,0.3-3.6,0.3c-3.9,0-4.8-1-4.8-4.8v-20.6h8.4V396h-8.4v-12.5h-11.5V396h-6.9v7.7h6.9
		v24.6c0,8.3,6.1,9.9,13.1,9.9c2.3,0,4.8-0.1,6.7-0.4V428.8z"/>
	<rect x="-190.7" y="396" class="st3" width="11.5" height="41.7"/>
	<polygon class="st3" points="-175.7,396 -161.4,437.7 -148.7,437.7 -134.6,396 -146,396 -154.8,424.5 -154.9,424.5 -163.7,396 	"/>
	<path class="st3" d="M-118.9,413.7c-7.1,1-14.2,3.2-14.2,12.7c0,8.6,6.3,12.5,14.2,12.5c5.1,0,10.4-1.4,14-5.2
		c0.1,1.4,0.4,2.7,0.8,4h11.6c-1-1.7-1.5-5.5-1.5-9.3v-21.7c0-10-10-11.9-18.3-11.9c-9.4,0-19,3.2-19.6,14h11.5
		c0.4-4.5,3.2-6.3,7.6-6.3c4,0,7.4,0.7,7.4,5.6C-105.4,412.9-111.9,412.6-118.9,413.7 M-105.4,421.6c0,2.5-0.3,9.6-9.3,9.6
		c-3.7,0-7-1.1-7-5.3c0-4.2,3.2-5.4,6.8-6.1c3.6-0.6,7.6-0.7,9.5-2.4V421.6z"/>
	<path class="st3" d="M-190.1,378.6c0.9,0.7,2.2,0.5,2.9-0.4c0.1-0.1,0.2-0.2,0.2-0.4h0.1c0,0,0.1,0,0.1,0c0.1,0,0.2,0,0.3,0
		c0.2,0,0.3,0.1,0.4,0.3c0.1,0.1,0.2,0.3,0.3,0.4c0,0.1,0,0.2,0,0.2v2.6c-2.6,0.4-4.6,2.6-4.6,5.3c0,3,2.4,5.4,5.4,5.4
		c3,0,5.4-2.4,5.4-5.4c0-2.8-2.2-5.1-4.9-5.4v-2.3c0-0.1,0-0.2,0-0.3c0-0.2,0-0.4-0.1-0.6c-0.1-0.4-0.3-0.7-0.6-1
		c-0.3-0.3-0.6-0.5-1-0.6c-0.2-0.1-0.4-0.1-0.6-0.1c-0.1,0-0.1,0-0.2,0c-0.1-0.5-0.3-0.9-0.7-1.2c-0.9-0.7-2.2-0.5-2.9,0.4
		C-191.2,376.6-191,377.9-190.1,378.6"/>
</g>
<g>
	<path class="st3" d="M103.9,43.2c0-0.2,0-0.3-0.1-0.5c-0.1-0.3-0.3-0.6-0.6-0.8c-0.3-0.2-0.6-0.3-1-0.3h-0.9
		c-0.1-0.3-0.3-0.6-0.6-0.8c-0.9-0.7-2.2-0.5-2.9,0.4c-0.7,0.9-0.5,2.2,0.4,2.9c0.9,0.7,2.2,0.5,2.9-0.4c0.2-0.2,0.3-0.5,0.4-0.8
		h0.7c0.1,0,0.2,0,0.2,0.1c0.1,0,0.1,0.1,0.1,0.2c0,0,0,0.1,0,0.1c0,0.1,0,0.1,0,0.2v1.3c-0.3,0.1-0.6,0.3-0.9,0.7
		c-0.7,0.9-0.5,2.2,0.4,2.9c0.9,0.7,2.2,0.5,2.9-0.4c0.7-0.9,0.5-2.2-0.4-2.9c-0.2-0.2-0.5-0.3-0.7-0.4V43.2z"/>
	<path class="st3" d="M101.4,54.2c-0.1,0.1-0.2,0.2-0.4,0.2l-0.1,0l-4.2,0c-0.6,0-1.1,0.2-1.6,0.6c-0.4,0.4-0.7,0.9-0.8,1.5
		c0,0.2,0,0.3,0,0.4v5.5c-0.3,0.1-0.7,0.3-0.9,0.7c-0.7,0.9-0.5,2.2,0.4,2.9c0.9,0.7,2.2,0.5,2.9-0.4c0.7-0.9,0.5-2.2-0.4-2.9
		c-0.1,0-0.1-0.1-0.2-0.1v-5.7c0,0,0-0.1,0-0.1c0-0.1,0.1-0.3,0.2-0.4c0.1-0.1,0.2-0.1,0.4-0.1h0l4.2,0c0.1,0,0.2,0,0.3,0
		c0.6-0.1,1.1-0.3,1.5-0.8c0.4-0.4,0.6-1,0.7-1.6v-0.4c0.3-0.1,0.5-0.3,0.7-0.6c0.7-0.9,0.5-2.2-0.4-2.9c-0.9-0.7-2.2-0.5-2.9,0.4
		c-0.7,0.9-0.5,2.2,0.4,2.9c0.1,0.1,0.2,0.2,0.4,0.2v0.3C101.6,53.9,101.5,54.1,101.4,54.2"/>
	<path class="st3" d="M67.4,67.8c0,0.2,0.1,0.4,0.2,0.6c0.2,0.4,0.5,0.6,0.9,0.8c0.2,0.1,0.4,0.1,0.6,0.1l10.9,0
		c0.1,0.5,0.3,0.9,0.8,1.3c0.9,0.7,2.2,0.5,2.9-0.4c0.7-0.9,0.5-2.2-0.4-2.9c-0.9-0.7-2.2-0.5-2.9,0.4c-0.1,0.1-0.2,0.3-0.3,0.5H69
		c-0.1,0-0.1,0-0.2,0c-0.1,0-0.2-0.1-0.2-0.2c0,0,0-0.1-0.1-0.2c0,0,0-0.1,0-0.1v-0.8c0-0.1,0-0.2,0-0.3c0-0.4-0.2-0.8-0.5-1
		c-0.3-0.3-0.7-0.4-1.1-0.4h-5.8c-0.4-0.6-1-0.9-1.7-0.9c-1.1,0-2.1,0.9-2.1,2.1c0,1.1,0.9,2.1,2.1,2.1c1.1,0,2-0.9,2.1-2h5.5
		c0.1,0,0.2,0,0.3,0.1c0.1,0.1,0.1,0.2,0.2,0.3c0,0,0,0.1,0,0.1v0.8C67.4,67.7,67.4,67.8,67.4,67.8"/>
	<path class="st3" d="M81.9,63.5h-9.1c-0.1-0.5-0.3-0.9-0.8-1.3c-0.9-0.7-2.2-0.5-2.9,0.4c-0.7,0.9-0.5,2.2,0.4,2.9
		c0.9,0.7,2.2,0.5,2.9-0.4c0-0.1,0.1-0.1,0.1-0.2H82c0.1,0,0.1,0,0.2,0c0.1,0,0.2,0,0.4-0.1c0.2-0.1,0.4-0.2,0.6-0.3
		c0.4-0.3,0.7-0.7,0.8-1.1c0-0.1,0.1-0.2,0.1-0.3c0-0.1,0-0.2,0-0.3v-0.1c0.3-0.1,0.6-0.3,0.9-0.6c0.7-0.9,0.5-2.2-0.4-2.9
		c-0.9-0.7-2.2-0.5-2.9,0.4c-0.7,0.9-0.5,2.2,0.4,2.9c0.2,0.1,0.4,0.2,0.6,0.3v0.2c0,0,0,0.1,0,0.1c0,0.1-0.1,0.2-0.2,0.3
		c-0.1,0-0.1,0.1-0.2,0.1C82.1,63.5,82.1,63.5,81.9,63.5L81.9,63.5z"/>
	<path class="st3" d="M86.4,70.9c0-0.2,0.1-0.3,0.2-0.4c0.1,0,0.1-0.1,0.2-0.1c0,0,0.1,0,0.2,0l4.7,0c0.1,0.4,0.4,0.8,0.7,1.1
		c0.9,0.7,2.2,0.5,2.9-0.4c0.7-0.9,0.5-2.2-0.4-2.9c-0.9-0.7-2.2-0.5-2.9,0.4c-0.1,0.1-0.2,0.2-0.2,0.4h-4.6h-0.1h-0.1
		c-0.1,0-0.3,0-0.5,0c-0.3,0.1-0.5,0.2-0.8,0.3c-0.5,0.3-0.8,0.8-0.9,1.4c0,0.1,0,0.3,0,0.4v0.1c-0.3,0.1-0.6,0.3-0.9,0.6
		c-0.7,0.9-0.5,2.2,0.4,2.9c0.9,0.7,2.2,0.5,2.9-0.4c0.7-0.9,0.5-2.2-0.4-2.9c-0.2-0.1-0.4-0.2-0.6-0.3V71
		C86.4,71,86.4,70.9,86.4,70.9"/>
	<path class="st3" d="M38.4,8.5l0,3c0,0.4,0.2,0.8,0.5,1.1c0.3,0.3,0.7,0.5,1.1,0.5c0.1,0,0.2,0,0.3,0h2.9l0.2,0c0,0,0.1,0,0.1,0
		c0.1,0.1,0.1,0.1,0.2,0.3l0,4.1c-0.7,0.3-1.2,1-1.2,1.8c0,1.1,0.9,2.1,2.1,2.1c1.1,0,2.1-0.9,2.1-2.1c0-1-0.7-1.8-1.6-2v-3.8
		c0-0.1,0-0.1,0-0.2c0-0.1,0-0.2,0-0.3c-0.1-0.4-0.4-0.7-0.7-1c-0.2-0.1-0.3-0.2-0.6-0.3c-0.1,0-0.2,0-0.3-0.1c-0.1,0-0.1,0-0.2,0
		h-2.9c0,0-0.1,0-0.1,0c-0.1,0-0.2-0.1-0.2-0.1c-0.1-0.1-0.1-0.2-0.1-0.2c0-0.2,0-0.3,0-0.5l0-2.5c0-0.1,0-0.2,0.1-0.3
		c0.1-0.1,0.1-0.1,0.2-0.1c0,0,0.1,0,0.2,0h0h1.1c0.1,0,0.1,0,0.2,0c0.4,0,0.8-0.2,1.1-0.5c0.3-0.3,0.5-0.7,0.5-1.1
		c0-0.1,0-0.1,0-0.2V4c0.8-0.3,1.4-1,1.4-1.9c0-1.1-0.9-2.1-2.1-2.1c-1.1,0-2.1,0.9-2.1,2.1C40.4,3,41,3.7,41.8,4v2.3l0,0.1
		c0,0.1,0,0.2-0.1,0.2c-0.1,0.1-0.2,0.1-0.3,0.1l-0.1,0l-1,0l-0.1,0c-0.1,0-0.2,0-0.4,0c-0.4,0.1-0.8,0.3-1,0.6
		C38.6,7.7,38.4,8.1,38.4,8.5"/>
	<path class="st3" d="M15.5,17.6c-0.1,0.1-0.1,0.3-0.1,0.5l0,7c0,0.1,0,0.2,0,0.3c0,0.3,0.2,0.6,0.3,0.8c0.2,0.2,0.4,0.4,0.7,0.5
		c0.1,0.1,0.3,0.1,0.4,0.1c0.1,0,0.1,0,0.2,0h10.1c0.1,0,0.1,0,0.2,0c0.1,0,0.2,0,0.2,0c0.3-0.1,0.6-0.2,0.8-0.4
		c0.2-0.2,0.4-0.5,0.5-0.8c0-0.1,0.1-0.3,0.1-0.5v-7.8c0.8-0.3,1.4-1,1.4-1.9c0-1.1-0.9-2.1-2.1-2.1c-1.1,0-2.1,0.9-2.1,2.1
		c0,0.9,0.6,1.7,1.4,1.9v7.8c0,0,0,0.1,0,0.1c0,0.1-0.1,0.1-0.1,0.2c0,0-0.1,0.1-0.2,0.1h-0.1H17.1c0,0-0.1,0-0.1,0
		c-0.1,0-0.1-0.1-0.2-0.1c0-0.1-0.1-0.1-0.1-0.2c0,0,0-0.1,0-0.1l0-6.8c0,0,0-0.1,0-0.1c0-0.1,0.1-0.1,0.1-0.2
		c0.1,0,0.1-0.1,0.2-0.1c0,0,0.1,0,0.1,0h1.7c0.3,0.8,1,1.4,2,1.4c1.1,0,2.1-0.9,2.1-2.1c0-1.1-0.9-2.1-2.1-2.1
		c-0.9,0-1.6,0.6-1.9,1.4h-1.8c-0.1,0-0.2,0-0.3,0c-0.3,0-0.6,0.2-0.8,0.4C15.8,17.1,15.6,17.4,15.5,17.6"/>
	<path class="st3" d="M41.4,25.4c-0.1-0.4-0.3-0.7-0.5-1c-0.3-0.3-0.6-0.5-0.9-0.6c-0.2-0.1-0.4-0.1-0.6-0.1l-3.6,0
		c-0.4-0.6-1-1-1.8-1c-1.1,0-2.1,0.9-2.1,2.1s0.9,2.1,2.1,2.1c0.9,0,1.6-0.6,1.9-1.4h3.3c0,0,0.1,0,0.1,0c0.1,0,0.2,0.1,0.2,0.1
		c0.1,0.1,0.1,0.1,0.1,0.2c0,0,0,0.1,0,0.1v4.5c-0.8,0.3-1.3,1-1.3,1.9c0,1.1,0.9,2.1,2.1,2.1c1.1,0,2.1-0.9,2.1-2.1
		c0-0.8-0.5-1.5-1.1-1.8V26C41.5,25.8,41.4,25.6,41.4,25.4"/>
	<path class="st3" d="M26.3,29.8c-0.2-0.2-0.5-0.3-0.8-0.3c-0.1,0-0.1,0-0.2,0h-4.5c-0.2-0.9-1-1.6-2-1.6c-1.1,0-2.1,0.9-2.1,2.1
		c0,1.1,0.9,2.1,2.1,2.1c0.9,0,1.6-0.6,1.9-1.3l4.7,0c0.1,0,0.1,0,0.2,0.1c0.1,0,0.1,0.1,0.1,0.2c0,0,0,0.1,0,0.1v5.9
		c0,0,0,0.1,0,0.1c0,0.1-0.1,0.1-0.1,0.2c-0.1,0-0.1,0.1-0.2,0.1c0,0-0.1,0-0.1,0h-1.2c-0.3-0.8-1-1.4-1.9-1.4
		c-1.1,0-2.1,0.9-2.1,2.1c0,1.1,0.9,2.1,2.1,2.1c1,0,1.8-0.7,2-1.6h1.1c0.1,0,0.2,0,0.2,0c0.3,0,0.6-0.2,0.8-0.4
		c0.2-0.2,0.4-0.4,0.5-0.7c0-0.1,0.1-0.3,0.1-0.4v-5.9c0-0.1,0-0.3-0.1-0.4C26.7,30.2,26.5,30,26.3,29.8"/>
	<path class="st3" d="M31.2,38.6c-0.4,0.2-0.7,0.5-0.8,0.9c-0.1,0.2-0.1,0.4-0.1,0.6l0,1.9c0,0.1-0.1,0.2-0.1,0.2
		c0,0-0.1,0.1-0.1,0.1c0,0-0.1,0-0.2,0h-3.5c-0.2-0.9-1-1.5-2-1.5c-1.1,0-2.1,0.9-2.1,2.1s0.9,2.1,2.1,2.1c0.9,0,1.6-0.5,1.9-1.3
		l3.6,0c0.2,0,0.4,0,0.6-0.1c0.2-0.1,0.4-0.2,0.5-0.3c0.3-0.3,0.5-0.7,0.6-1.1c0-0.1,0-0.2,0-0.3v-1.8c0-0.1,0-0.1,0-0.1
		c0-0.1,0.1-0.2,0.2-0.2c0,0,0.1,0,0.1,0c0,0,0.1,0,0.1,0h12.5c0.3,0.8,1,1.3,1.9,1.3c1.1,0,2.1-0.9,2.1-2.1c0-1.1-0.9-2.1-2.1-2.1
		c-0.9,0-1.7,0.6-2,1.5H32.1c-0.1,0-0.1,0-0.2,0C31.6,38.5,31.4,38.5,31.2,38.6"/>
	<path class="st3" d="M65.9,26.3c-0.1,0-0.1-0.1-0.2-0.2c0-0.1-0.1-0.1-0.1-0.2l0-9.7c1-0.1,1.8-1,1.8-2c0-1.1-0.9-2.1-2.1-2.1
		c-1.1,0-2.1,0.9-2.1,2.1c0,0.8,0.5,1.5,1.2,1.9v9.8c0,0.1,0,0.1,0,0.2c0,0.3,0.1,0.5,0.3,0.7c0.1,0.2,0.3,0.4,0.6,0.5
		c0.2,0.1,0.5,0.2,0.8,0.2h7.2c0.1,0,0.2,0,0.2,0.1c0.1,0,0.1,0.1,0.2,0.2c0,0.1,0.1,0.1,0.1,0.2l0,7.4c0,0.1,0,0.2,0,0.2
		c0,0.1-0.1,0.2-0.1,0.2c-0.1,0.1-0.1,0.1-0.2,0.1c0,0-0.1,0-0.1,0l-1.5,0c0-0.5-0.3-1.1-0.8-1.4c-0.9-0.7-2.2-0.5-2.9,0.4
		c-0.7,0.9-0.5,2.2,0.4,2.9c0.9,0.7,2.2,0.5,2.9-0.4c0.1-0.1,0.2-0.2,0.2-0.4h1.6c0.1,0,0.1,0,0.2,0c0.1,0,0.3,0,0.4-0.1
		c0.2-0.1,0.5-0.2,0.6-0.4c0.2-0.2,0.3-0.4,0.4-0.7c0.1-0.2,0.1-0.4,0-0.5V28c0-0.1,0-0.1,0-0.2c0-0.3-0.1-0.5-0.3-0.7
		c-0.1-0.2-0.3-0.4-0.6-0.5c-0.2-0.1-0.5-0.2-0.8-0.2h-7.2C66,26.4,66,26.3,65.9,26.3"/>
	<path class="st3" d="M64.1,36.6c0,0.1,0,0.2-0.1,0.2c0,0.1-0.1,0.1-0.2,0.2c-0.1,0-0.1,0.1-0.2,0.1c0,0-0.1,0-0.1,0H50.8
		c-0.1,0-0.2,0-0.2-0.1c-0.1-0.1-0.3-0.2-0.3-0.4c0,0,0-0.1,0-0.1c0,0,0-0.1,0-0.1v-3c0-0.1,0-0.1,0-0.2c0-0.1,0-0.2,0.1-0.2
		c0.1-0.1,0.2-0.2,0.4-0.3c0,0,0.1,0,0.2,0h4.9c0.3,0.7,1,1.2,1.9,1.2c1.1,0,2.1-0.9,2.1-2.1c0-1.1-0.9-2.1-2.1-2.1
		c-1,0-1.7,0.6-2,1.5h-4.5h-0.2c-0.1,0-0.3,0-0.5,0c-0.5,0.1-1,0.4-1.3,0.9c-0.1,0.2-0.2,0.5-0.3,0.8c0,0.1,0,0.3,0,0.4v3
		c0,0.1,0,0.2,0,0.3c0,0.1,0,0.3,0.1,0.4c0.2,0.5,0.6,1,1.1,1.2c0.3,0.1,0.5,0.2,0.8,0.2h12.5h0.3c0.1,0,0.3,0,0.4-0.1
		c0.3-0.1,0.5-0.2,0.7-0.4c0.2-0.2,0.4-0.4,0.5-0.6c0.1-0.2,0.2-0.5,0.3-0.8c0-0.1,0-0.2,0-0.3v-2.9c0.7-0.3,1.2-1,1.2-1.8
		c0-1.1-0.9-2.1-2.1-2.1c-1.1,0-2.1,0.9-2.1,2.1c0,0.9,0.6,1.7,1.5,2L64.1,36.6C64.1,36.6,64.1,36.6,64.1,36.6"/>
	<path class="st3" d="M22.9,51.7c0.2,0.4,0.5,0.7,0.9,0.9c0.3,0.2,0.7,0.3,1.1,0.3l1.9,0c0.3,0.7,1,1.2,1.8,1.2
		c1.1,0,2.1-0.9,2.1-2.1c0-1.1-0.9-2.1-2.1-2.1c-0.9,0-1.6,0.5-1.9,1.3H25c-0.1,0-0.2,0-0.3-0.1c-0.1-0.1-0.2-0.1-0.2-0.2
		c-0.1-0.1-0.1-0.2-0.1-0.4v-2.9c0-0.1,0-0.3,0-0.4c-0.1-0.4-0.2-0.8-0.5-1.1c-0.3-0.3-0.6-0.6-1-0.7c-0.2-0.1-0.4-0.1-0.6-0.1
		c-0.1,0-0.2,0-0.2,0h-0.4c-0.3-0.7-1-1.2-1.8-1.2c-1.1,0-2.1,0.9-2.1,2.1c0,1.1,0.9,2.1,2.1,2.1c0.9,0,1.6-0.5,1.9-1.3h0.4
		c0,0,0.1,0,0.1,0c0.1,0,0.1,0,0.2,0c0.1,0,0.2,0.1,0.3,0.2c0.1,0.1,0.1,0.2,0.1,0.3c0,0.1,0,0.1,0,0.2v2.9
		C22.6,50.9,22.7,51.3,22.9,51.7"/>
	<path class="st3" d="M44.9,59.4c0.2-0.1,0.4-0.3,0.5-0.6c0-0.1,0.1-0.2,0.1-0.4v-1.8c1.1-0.1,1.9-1,1.9-2c0-1.1-0.9-2.1-2.1-2.1
		c-1.1,0-2.1,0.9-2.1,2.1c0,0.9,0.6,1.6,1.3,1.9l0,1.9c0,0,0,0.1,0,0.1c0,0.1-0.1,0.1-0.1,0.2c-0.1,0-0.1,0.1-0.2,0.1h-8.7l-0.1,0
		c0,0-0.1,0-0.1,0c-0.1,0-0.1-0.1-0.1-0.2c0,0,0-0.1,0-0.1l0-0.3c1-0.2,1.7-1,1.7-2c0-1.1-0.9-2.1-2.1-2.1c-1.1,0-2.1,0.9-2.1,2.1
		c0,1,0.7,1.7,1.5,2v0.3c0,0.1,0,0.1,0,0.2c0,0.1,0,0.3,0.1,0.4c0.1,0.2,0.3,0.4,0.5,0.6c0.1,0.1,0.2,0.1,0.4,0.1c0.1,0,0.1,0,0.2,0
		c0,0,0.1,0,0.1,0h8.8C44.4,59.6,44.7,59.5,44.9,59.4"/>
	<path class="st3" d="M66,44.1c-0.1,0-0.1-0.1-0.2-0.1c0-0.1-0.1-0.1-0.1-0.2l0-1.2c0,0,0-0.1,0-0.1c0-0.1,0-0.2,0-0.2
		c0-0.3-0.1-0.5-0.3-0.7c-0.2-0.2-0.4-0.4-0.6-0.5c-0.2-0.1-0.5-0.2-0.8-0.2l-4.7,0c-0.1,0-0.3,0-0.4,0c-0.2,0.1-0.5,0.2-0.7,0.3
		c-0.2,0.2-0.4,0.4-0.5,0.6c-0.1,0.2-0.2,0.5-0.1,0.7v1.9c-0.8,0.3-1.3,1-1.3,1.9c0,1.1,0.9,2.1,2.1,2.1c1.1,0,2.1-0.9,2.1-2.1
		c0-1-0.7-1.8-1.6-2v-1.8c0-0.1,0-0.2,0-0.2c0-0.1,0.1-0.1,0.1-0.2c0.1-0.1,0.1-0.1,0.2-0.1c0,0,0.1,0,0.1,0h4.7
		c0.1,0,0.1,0,0.2,0.1c0.1,0,0.1,0.1,0.2,0.1c0,0.1,0.1,0.1,0.1,0.2v1.2c0,0.1,0,0.2,0,0.2c0,0.3,0.1,0.5,0.3,0.7
		c0.1,0.2,0.3,0.4,0.6,0.5c0.2,0.1,0.5,0.2,0.8,0.2l13.1,0c-0.1,0.1-0.1,0.1-0.2,0.2c-0.7,0.9-0.5,2.2,0.4,2.9
		c0.9,0.7,2.2,0.5,2.9-0.4c0.7-0.9,0.5-2.2-0.4-2.9c-0.3-0.2-0.6-0.3-0.9-0.4c0,0,0-0.1-0.1-0.1c-0.2-0.2-0.4-0.3-0.6-0.4
		c-0.1,0-0.2-0.1-0.4-0.1c-0.1,0-0.2,0-0.3,0l-13.4,0C66.2,44.1,66.1,44.1,66,44.1"/>
	<path class="st3" d="M52,49.1c0.1,0,0.2,0,0.3-0.1c0.4-0.1,0.8-0.4,1-0.7c0.1-0.2,0.2-0.4,0.2-0.6c0,0,0,0,0,0c0.9-0.2,1.6-1,1.6-2
		c0-1.1-0.9-2.1-2.1-2.1c-1.1,0-2.1,0.9-2.1,2.1c0,0.9,0.6,1.6,1.3,1.9c0,0,0,0,0,0c-0.1,0.1-0.2,0.2-0.3,0.2c0,0-0.1,0-0.1,0
		l-0.1,0H33c0,0-0.1,0-0.1,0c0,0,0,0,0,0c0.5-0.4,0.9-1,0.9-1.7c0-1.1-0.9-2.1-2.1-2.1c-1.1,0-2.1,0.9-2.1,2.1c0,1.1,0.9,2,1.9,2
		c0.1,0.2,0.3,0.4,0.5,0.6c0.2,0.1,0.4,0.2,0.6,0.2c0.1,0,0.2,0,0.3,0h18.9C51.9,49.1,52,49.1,52,49.1"/>
	<path class="st3" d="M13,12.8v6c0,0.1,0,0.1,0,0.2c0,0.1-0.1,0.2-0.2,0.2c-0.1,0-0.2,0.1-0.3,0.1H9.4c-0.2,0-0.4,0-0.5,0.1
		C8.5,19.4,8.2,19.7,8,20c-0.1,0.2-0.2,0.3-0.2,0.5c-0.1,0.2-0.1,0.4-0.1,0.5v6.8c0,0.1,0,0.2,0,0.3c0,0.4,0.2,0.7,0.5,1
		c0.3,0.3,0.6,0.5,1,0.5c0.1,0,0.2,0,0.3,0l2.8,0c0,0,0.1,0,0.1,0c0.1,0,0.1,0.1,0.2,0.2c0,0,0,0.1,0,0.1v11.5
		c0,0.4,0.1,0.8,0.3,1.1c0.2,0.3,0.6,0.5,0.9,0.6c0.2,0,0.3,0.1,0.5,0.1H15c0.3,0.7,1,1.2,1.9,1.2c1.1,0,2.1-0.9,2.1-2.1
		c0-1.1-0.9-2.1-2.1-2.1c-1,0-1.8,0.7-2,1.6h-0.6c0,0-0.1,0-0.1,0c-0.1,0-0.2-0.1-0.2-0.2c0-0.1-0.1-0.2-0.1-0.3V30.1
		c0-0.1,0-0.2,0-0.3c0-0.2,0-0.4-0.1-0.6c-0.1-0.3-0.4-0.7-0.7-0.8c-0.2-0.1-0.3-0.2-0.5-0.2c-0.1,0-0.2,0-0.3,0c0,0-0.1,0-0.2,0
		H9.4H9.3h0c-0.1,0-0.2-0.1-0.2-0.1C9,28.1,9,28,9,27.9c0,0,0-0.1,0-0.1V21c0-0.1,0-0.1,0-0.1c0,0,0-0.1,0.1-0.1
		c0-0.1,0.1-0.1,0.2-0.2c0,0,0.1,0,0.1,0l3.2,0c0.4,0,0.7-0.1,1-0.3c0.3-0.2,0.5-0.5,0.6-0.9c0.1-0.2,0.1-0.4,0.1-0.5v-5.5
		c0,0,0,0,0,0c1.1,0,2.1-0.9,2.1-2.1c0-1.1-0.9-2.1-2.1-2.1c-1.1,0-2.1,0.9-2.1,2.1C12.2,11.9,12.5,12.4,13,12.8"/>
	<path class="st3" d="M28,6.4c0.8,0,1.5-0.5,1.8-1.1l6,0c0.2,0,0.4,0,0.6-0.1c0.2,0,0.3,0.1,0.5,0.1c1.1,0,2.1-0.9,2.1-2.1
		c0-1.1-0.9-2.1-2.1-2.1c-1.1,0-2.1,0.9-2.1,2.1C34.9,3.5,35,3.7,35,4h-5c-0.2-1-1-1.7-2-1.7c-1.1,0-2.1,0.9-2.1,2.1
		C26,5.5,26.9,6.4,28,6.4"/>
	<path class="st3" d="M48,7.2c0.9,0,1.6-0.5,1.9-1.3h3.2l0.1,0h0c0,0,0.1,0,0.1,0c0,0,0,0,0.1,0c-0.7,0.3-1.2,1-1.2,1.9
		c0,1.1,0.9,2.1,2.1,2.1c1.1,0,2.1-0.9,2.1-2.1c0-1-0.7-1.8-1.6-2c0,0,0,0,0,0c-0.1-0.2-0.2-0.4-0.4-0.6c-0.2-0.2-0.4-0.3-0.6-0.4
		c-0.1,0-0.2-0.1-0.3-0.1c-0.1,0-0.1,0-0.2,0h-3.1c-0.2-1-1-1.7-2-1.7C46.9,3.1,46,4,46,5.2C46,6.3,46.9,7.2,48,7.2"/>
	<path class="st3" d="M51.1,14.7c0-1.1-0.9-2.1-2.1-2.1c-1.1,0-2.1,0.9-2.1,2.1c0,0.9,0.6,1.7,1.5,2V20c0,0.1,0,0.2,0,0.3
		c0,0.2,0.1,0.3,0.2,0.5c0.2,0.3,0.4,0.6,0.7,0.7c0.2,0.1,0.3,0.1,0.5,0.2c0.1,0,0.2,0,0.3,0h8.4c0.2,0,0.3,0,0.5-0.1
		c0.3-0.1,0.6-0.3,0.8-0.6c0.2-0.3,0.3-0.6,0.3-1v-1.9c1-0.2,1.7-1,1.7-2c0-1.1-0.9-2.1-2.1-2.1c-1.1,0-2.1,0.9-2.1,2.1
		c0,0.9,0.5,1.6,1.3,1.9v2c0,0.1,0,0.2-0.1,0.3c-0.1,0.1-0.1,0.1-0.2,0.2c-0.1,0-0.1,0-0.2,0h-8.3l-0.2,0c0,0-0.1,0-0.1,0
		c-0.1,0-0.1,0-0.1,0c-0.1,0-0.2-0.1-0.2-0.2c0,0,0-0.1-0.1-0.2v-3.4C50.4,16.4,51.1,15.7,51.1,14.7"/>
	<path class="st3" d="M58.7,4.7c1,0,1.8-0.7,2-1.6h2.9c0,0,0.1,0,0.1,0c0.1,0,0.2,0.1,0.3,0.2c0,0,0,0.1,0.1,0.2c0,0,0,0.1,0,0.1
		v0.4c0,0.1,0,0.2,0,0.4c0,0.2,0.1,0.5,0.3,0.7c0.1,0.2,0.3,0.4,0.5,0.5c0.2,0.1,0.4,0.2,0.6,0.2c0.1,0,0.2,0,0.3,0H69
		c0.3,0.8,1,1.5,2,1.5c1.1,0,2.1-0.9,2.1-2.1C73,4,72.1,3.1,71,3.1c-0.9,0-1.6,0.5-1.9,1.3h-3.4c0,0-0.1,0-0.1,0
		c-0.1,0-0.1,0-0.2-0.1c0,0-0.1-0.1-0.1-0.1c0,0-0.1-0.1-0.1-0.2c0,0,0-0.1,0-0.1V3.5c0-0.1,0-0.2,0-0.3c0-0.2-0.1-0.5-0.2-0.7
		c-0.2-0.4-0.7-0.7-1.1-0.8c-0.1,0-0.2,0-0.3,0h0h-3c-0.3-0.7-1-1.2-1.9-1.2c-1.1,0-2.1,0.9-2.1,2.1C56.6,3.8,57.5,4.7,58.7,4.7"/>
	<path class="st3" d="M77.6,13c1.1,0,2.1-0.9,2.1-2.1c0-1-0.7-1.8-1.7-2V8.7c0-0.1,0-0.2,0.1-0.2c0.1-0.1,0.1-0.1,0.2-0.1
		c0,0,0.1,0,0.1,0h0.1h1.9c0.1,0,0.1,0,0.1,0c0,0,0.1,0,0.1,0.1c0.1,0.1,0.1,0.1,0.2,0.2c0,0,0,0.1,0,0.2v9.5c0,0.2,0,0.4,0.1,0.5
		c0.1,0.2,0.1,0.4,0.2,0.5c0.2,0.3,0.5,0.5,0.9,0.6c0.2,0,0.3,0.1,0.5,0.1h1.8c0.1,0.3,0.3,0.5,0.6,0.7c0.9,0.7,2.2,0.5,2.9-0.4
		c0.7-0.9,0.5-2.2-0.4-2.9c-0.9-0.7-2.2-0.5-2.9,0.4c-0.2,0.3-0.3,0.6-0.4,0.9h-1.6c0,0-0.1,0-0.1,0c-0.1,0-0.2-0.1-0.2-0.2
		c0,0,0-0.1-0.1-0.1c0,0,0-0.1,0-0.2V8.8c0-0.2,0-0.4-0.1-0.5c-0.1-0.4-0.3-0.7-0.7-0.9c-0.1-0.1-0.3-0.2-0.5-0.2
		C80.6,7,80.5,7,80.3,7h-1.8c-0.1,0-0.1,0-0.2,0c-0.1,0-0.2,0-0.3,0c-0.4,0.1-0.7,0.3-0.9,0.6c-0.2,0.3-0.4,0.7-0.4,1.1v0.4
		c-0.7,0.3-1.2,1-1.2,1.8C75.5,12.1,76.5,13,77.6,13"/>
	<path class="st3" d="M22.3,10.2c0.8,0,1.4-0.4,1.8-1h8.9l0.2,0c0.1,0,0.1,0.1,0.1,0.1c0,0,0,0.1,0.1,0.1c0,0,0,0.1,0,0.1v2.9
		c-0.9,0.2-1.6,1-1.6,2c0,1.1,0.9,2.1,2.1,2.1c1.1,0,2.1-0.9,2.1-2.1c0-0.9-0.5-1.6-1.3-1.9v-3c0-0.1,0-0.2,0-0.2v0c0,0,0,0,0,0
		c0-0.3-0.2-0.6-0.3-0.8c-0.2-0.2-0.4-0.4-0.7-0.5c-0.1,0-0.3-0.1-0.4-0.1l-8.8,0c-0.1-1-1-1.8-2-1.8c-1.1,0-2.1,0.9-2.1,2.1
		C20.2,9.3,21.2,10.2,22.3,10.2"/>
	<path class="st3" d="M52.4,59.1c1.1,0,2.1-0.9,2.1-2.1c0-0.9-0.6-1.7-1.5-2V53c0,0,0-0.1,0-0.1c0-0.1,0-0.2,0.1-0.2
		c0-0.1,0.1-0.1,0.2-0.1c0,0,0.1,0,0.1,0l17.6,0h0.4c0.3,0,0.6-0.1,0.8-0.2c0.2-0.1,0.4-0.3,0.6-0.6c0.1-0.2,0.2-0.5,0.2-0.8v-0.3
		c0.6-0.3,1.1-1,1.1-1.8c0-1.1-0.9-2.1-2.1-2.1c-1.1,0-2.1,0.9-2.1,2.1c0,1.1,0.8,1.9,1.8,2v0.1c0,0.1,0,0.2-0.1,0.2
		c0,0.1-0.1,0.1-0.2,0.2c-0.1,0-0.1,0.1-0.2,0.1l-17.8,0l-0.1,0c-0.1,0-0.2,0-0.2,0c-0.1,0-0.3,0.1-0.4,0.1
		c-0.3,0.1-0.5,0.3-0.7,0.5c-0.2,0.2-0.3,0.5-0.3,0.8c0,0.1,0,0.2,0,0.3v2.1c-0.8,0.3-1.4,1-1.4,1.9C50.3,58.2,51.2,59.1,52.4,59.1"
		/>
	<path class="st3" d="M55.9,64.3c0.9,0,1.6-0.5,1.9-1.3h4.3c0.4,0,0.8-0.1,1-0.4c0.3-0.2,0.5-0.6,0.6-1c0-0.2,0-0.3,0-0.4v-2.9
		c0,0,0-0.1,0-0.1c0-0.1,0-0.1,0.1-0.2c0.1-0.1,0.1-0.2,0.3-0.2c0,0,0.1,0,0.2,0h10.3c0,0.6,0.3,1.2,0.8,1.6
		c0.9,0.7,2.2,0.5,2.9-0.4c0.7-0.9,0.5-2.2-0.4-2.9c-0.9-0.7-2.2-0.5-2.9,0.4c0,0-0.1,0.1-0.1,0.1H64.2c-0.2,0-0.4,0-0.5,0.1
		c-0.4,0.1-0.7,0.4-0.9,0.7c-0.1,0.2-0.2,0.4-0.2,0.5c0,0.1,0,0.2,0,0.3v2.9c0,0.1,0,0.1,0,0.2c0,0.1-0.1,0.2-0.2,0.3
		c-0.1,0.1-0.2,0.1-0.3,0.1h-4.2c-0.2-0.9-1-1.6-2-1.6c-1.1,0-2.1,0.9-2.1,2.1S54.7,64.3,55.9,64.3"/>
	<path class="st3" d="M87.2,64.4c-0.7,0.9-0.5,2.2,0.4,2.9c0.9,0.7,2.2,0.5,2.9-0.4c0.7-0.9,0.5-2.2-0.4-2.9
		c-0.1-0.1-0.2-0.2-0.4-0.2v-3.1c0.2-0.1,0.4-0.3,0.5-0.5c0.7-0.9,0.5-2.2-0.4-2.9c-0.9-0.7-2.2-0.5-2.9,0.4
		c-0.7,0.9-0.5,2.2,0.4,2.9c0.2,0.2,0.4,0.3,0.7,0.3v2.8C87.7,63.9,87.4,64.1,87.2,64.4"/>
	<path class="st3" d="M90.8,18.3c0.8,0.6,2,0.5,2.7-0.2l0,6.4c0,0.1,0,0.2,0,0.3c0.1,0.3,0.2,0.6,0.5,0.9c0.2,0.2,0.5,0.4,0.9,0.5
		c0.1,0,0.1,0,0.3,0h4c0,0,0.1,0,0.1,0c0.1,0,0.2,0,0.2,0.1c0.1,0.1,0.1,0.1,0.1,0.2c0,0,0,0.1,0,0.1v1.6c-0.5,0.1-0.9,0.3-1.2,0.7
		c-0.7,0.9-0.5,2.2,0.4,2.9c0.9,0.7,2.2,0.5,2.9-0.4c0.7-0.9,0.5-2.2-0.4-2.9c-0.1-0.1-0.3-0.2-0.4-0.2v-1.6c0-0.1,0-0.1,0-0.2
		c0-0.1,0-0.2,0-0.3c-0.1-0.3-0.2-0.6-0.5-0.8c-0.2-0.2-0.6-0.4-0.9-0.4c-0.1,0-0.2,0-0.3,0h-3.9l-0.1,0c-0.1,0-0.2-0.1-0.2-0.1
		c-0.1-0.1-0.1-0.1-0.1-0.3l0-6.4c0-0.2,0-0.3-0.1-0.5c-0.1-0.3-0.3-0.6-0.5-0.8c0.1-0.7-0.2-1.4-0.8-1.8c-0.9-0.7-2.2-0.5-2.9,0.4
		C89.7,16.3,89.9,17.6,90.8,18.3"/>
	<path class="st3" d="M84.9,23.1c-0.9-0.7-2.2-0.5-2.9,0.4c-0.1,0.2-0.2,0.3-0.3,0.5l-3.7,0c-0.3,0-0.6,0.1-0.8,0.3
		c-0.2,0.2-0.4,0.4-0.6,0.7c-0.1,0.1-0.1,0.3-0.1,0.4c0,0.1,0,0.1,0,0.2v8.8c0,0.3,0.1,0.6,0.2,0.8c0.1,0.3,0.4,0.5,0.6,0.6
		c0.3,0.1,0.5,0.2,0.8,0.2h0.6c0.1,0.3,0.3,0.5,0.6,0.7c0.9,0.7,2.2,0.5,2.9-0.4c0.7-0.9,0.5-2.2-0.4-2.9c-0.9-0.7-2.2-0.5-2.9,0.4
		c-0.2,0.3-0.3,0.6-0.4,0.9h-0.4c-0.1,0-0.2,0-0.2-0.1c-0.1,0-0.1-0.1-0.2-0.2c0-0.1-0.1-0.1-0.1-0.2l0-8.8c0,0,0-0.1,0-0.1
		c0-0.1,0.1-0.1,0.2-0.2c0.1,0,0.1-0.1,0.2-0.1l3.6,0c0.1,0.5,0.3,0.9,0.7,1.2c0.9,0.7,2.2,0.5,2.9-0.4
		C85.9,25.1,85.8,23.8,84.9,23.1"/>
	<path class="st3" d="M86,32.9c-0.7,0.9-0.5,2.2,0.4,2.9c0.9,0.7,2.2,0.5,2.9-0.4c0.1-0.2,0.3-0.4,0.3-0.6h5c0.1,0,0.2,0,0.2,0.1
		c0.1,0,0.1,0.1,0.1,0.2c0,0,0,0.1,0,0.1l0,2.6c0,0.1,0,0.1,0,0.2c0,0.3,0.2,0.7,0.4,0.9c0.2,0.3,0.5,0.5,0.8,0.6
		c0.2,0,0.3,0.1,0.5,0.1l4.4,0c0.2,0,0.3,0,0.4-0.1c0.3-0.1,0.6-0.3,0.9-0.5c0.2-0.3,0.4-0.6,0.4-0.9c0-0.1,0-0.2,0-0.2v-0.1
		c0.4-0.1,0.8-0.4,1.1-0.7c0.7-0.9,0.5-2.2-0.4-2.9c-0.9-0.7-2.2-0.5-2.9,0.4c-0.7,0.9-0.5,2.2,0.4,2.9c0.2,0.1,0.3,0.2,0.5,0.3
		l0,0.2c0,0.1,0,0.2-0.1,0.2c-0.1,0.1-0.1,0.1-0.2,0.1c0,0-0.1,0-0.1,0h-4.4c0,0-0.1,0-0.1,0c-0.1,0-0.1-0.1-0.2-0.1
		c0-0.1-0.1-0.1-0.1-0.3v-2.6c0-0.1,0-0.1,0-0.2c0-0.2-0.1-0.3-0.1-0.5c-0.1-0.3-0.4-0.6-0.6-0.8c-0.3-0.2-0.6-0.3-1-0.3h-5
		c-0.1-0.4-0.4-0.7-0.7-1C88,31.8,86.7,32,86,32.9"/>
	<path class="st3" d="M95.7,45.5c-0.9-0.7-2.2-0.5-2.9,0.4c-0.1,0.1-0.2,0.2-0.2,0.4h-3.3l-0.1,0c-0.1,0-0.2,0-0.3,0
		c-0.2,0.1-0.4,0.1-0.6,0.3c-0.4,0.3-0.6,0.7-0.7,1.1c0,0.1,0,0.2,0,0.3v0.2c-0.3,0.1-0.6,0.3-0.8,0.6c-0.7,0.9-0.5,2.2,0.4,2.9
		c0.9,0.7,2.2,0.5,2.9-0.4c0.7-0.9,0.5-2.2-0.4-2.9c-0.3-0.2-0.6-0.3-0.9-0.4v0c0,0,0-0.1,0-0.1c0-0.1,0.1-0.2,0.2-0.3
		c0,0,0.1-0.1,0.1-0.1c0,0,0.1,0,0.1,0l3.1,0c0.1,0.5,0.3,0.9,0.8,1.3c0.9,0.7,2.2,0.5,2.9-0.4C96.7,47.5,96.6,46.2,95.7,45.5"/>
	<path class="st3" d="M2.1,24.3c0.9,0,1.6-0.5,1.9-1.3h0.4c0.2,0,0.3,0,0.5-0.1c0.4-0.1,0.7-0.3,0.9-0.6c0.2-0.3,0.3-0.7,0.3-1v-5.1
		c0,0,0-0.1,0-0.1c0-0.1,0.1-0.1,0.2-0.2c0,0,0.1,0,0.2-0.1h0.8c0.4,0.6,1,1,1.8,1c1.1,0,2.1-0.9,2.1-2.1s-0.9-2.1-2.1-2.1
		c-1,0-1.9,0.8-2,1.8H6.4c-0.1,0-0.2,0-0.3,0c-0.2,0-0.4,0.1-0.5,0.2c-0.3,0.2-0.6,0.5-0.7,0.8c-0.1,0.2-0.1,0.4-0.1,0.5
		c0,0.1,0,0.1,0,0.2v5c0,0.1,0,0.2-0.1,0.2c0,0.1-0.1,0.1-0.2,0.1c0,0-0.1,0-0.1,0H4c-0.2-0.9-1-1.5-2-1.5c-1.1,0-2.1,0.9-2.1,2.1
		S0.9,24.3,2.1,24.3"/>
	<path class="st3" d="M5.1,28C3.9,28,3,28.9,3,30.1c0,1.1,0.9,2.1,2.1,2.1c0.1,0,0.2,0,0.3,0l0,4.6l0,0.2c0,0.1,0,0.2,0,0.3
		c0,0.3,0.1,0.5,0.3,0.7c0.2,0.4,0.6,0.8,1.1,1c0.1,0.1,0.3,0.1,0.4,0.1c0.3,0.7,1,1.1,1.8,1.1c1.1,0,2.1-0.9,2.1-2.1
		c0-1.1-0.9-2.1-2.1-2.1c-0.7,0-1.3,0.4-1.7,0.9c0,0,0-0.1-0.1-0.1c0,0,0-0.1,0-0.1l0-0.1l0-4.6c0-0.1,0-0.2,0-0.2
		c0-0.3-0.1-0.7-0.3-0.9c0.1-0.3,0.2-0.5,0.2-0.8C7.1,28.9,6.2,28,5.1,28"/>
</g>
</svg>
