<svg xmlns="http://www.w3.org/2000/svg" xmlns:xlink="http://www.w3.org/1999/xlink" viewBox="0 0 268.001 127.446">
  <defs>
    <style>
      .cls-1 {
        fill: #fff;
      }

      .cls-2 {
        filter: url(#logo);
      }
    </style>
    <filter id="logo" x="0" y="0" width="268.001" height="127.446" filterUnits="userSpaceOnUse">
      <feOffset dy="3" input="SourceAlpha"/>
      <feGaussianBlur stdDeviation="3" result="blur"/>
      <feFlood flood-opacity="0.345"/>
      <feComposite operator="in" in2="blur"/>
      <feComposite in="SourceGraphic"/>
    </filter>
  </defs>
  <g class="cls-2" transform="matrix(1, 0, 0, 1, 0, 0)">
    <path id="logo-2" data-name="logo" class="cls-1" d="M145.919,61.142a3.881,3.881,0,1,0,1.137-2.769,3.906,3.906,0,0,0-1.137,2.769M20.435,91.232c-8.218,0-11.311-7-11.311-13.9,0-7.28,3.093-14.279,11.311-14.279,4.562,0,8.53,3.125,9.093,7.28H38.4c-1.094-9.593-8.811-14.967-17.967-14.967C7.593,55.362,0,64.986,0,77.328c0,12,7.593,21.622,20.435,21.622,10.186,0,17.373-6.624,18.31-17.029H29.871c-.656,5.5-3.812,9.311-9.436,9.311m52.806-8.311c0,9.561-6.093,15.842-15.592,15.842-9.436,0-15.561-6.28-15.561-15.842,0-9.593,6.124-15.9,15.561-15.9,9.468,0,15.592,6.28,15.592,15.9m-8.249,0c0-4.812-1.687-9.655-7.343-9.655-5.593,0-7.28,4.843-7.28,9.655,0,4.781,1.687,9.624,7.28,9.624,5.624,0,7.343-4.843,7.343-9.624m33.59-15.092h7.874V96.013c0,4.937-1.75,13.342-15.623,13.342-5.937,0-12.873-2.812-13.28-9.686h8.218c.75,3.093,3.25,4.156,6.187,4.156,4.593,0,6.718-3.156,6.624-7.468V92.42h-.094c-1.812,3.125-5.406,4.656-9.03,4.656-9.03,0-12.873-6.874-12.873-15.154,0-7.78,4.5-14.9,12.936-14.9,3.968,0,7,1.344,9,4.843h.094V67.829Zm0,14.686c0-4.906-1.687-9.249-7.03-9.249-4.656,0-6.687,4.062-6.687,8.561,0,4.312,1.625,9.03,6.687,9.03,4.687,0,7.03-4.031,7.03-8.343m41.65,15.436V79.421c0-7.468-2.218-12.436-11-12.436a10.754,10.754,0,0,0-9.218,5h-.156V67.8h-7.874V97.919h8.249V82.108c0-6.093,1.937-8.593,6.4-8.593,3.843,0,5.281,2.437,5.281,7.4v17h8.311Zm13.686-30.121h-8.249V97.95h8.249Zm22,23.716a14.188,14.188,0,0,1-2.562.219c-2.781,0-3.5-.719-3.5-3.5V73.36h6.062V67.829h-6.062V58.8H161.6v9.03h-5.062v5.53h5.031V91.139c0,6,4.437,7.155,9.468,7.155a33.964,33.964,0,0,0,4.843-.281V91.545ZM187.26,67.829h-8.28V97.95h8.28Zm2.562,0L200.131,97.95h9.218l10.186-30.121h-8.218L204.974,88.42h-.125l-6.343-20.56H189.82Zm50.806,8.811c0-3.562-2.437-4.093-5.343-4.093-3.125,0-5.187,1.281-5.468,4.531h-8.28c.469-7.749,7.374-10.092,14.154-10.092,6.03,0,13.248,1.344,13.248,8.561V91.232c0,2.75.281,5.468,1.062,6.718h-8.374a11.721,11.721,0,0,1-.594-2.906c-2.625,2.718-6.468,3.718-10.155,3.718-5.687,0-10.249-2.843-10.249-9.03,0-6.812,5.124-8.436,10.249-9.124,5.031-.781,9.749-.594,9.749-3.968m0,6.593c-1.375,1.219-4.312,1.281-6.874,1.75-2.562.531-4.906,1.406-4.906,4.437,0,3.093,2.406,3.843,5.062,3.843,6.468,0,6.687-5.124,6.687-6.937V83.233ZM200.444,31.146c-.031-.125-.062-.25-.094-.344a.969.969,0,0,0-.437-.562,1.125,1.125,0,0,0-.687-.219H198.6a1.632,1.632,0,0,0-.437-.594,1.491,1.491,0,1,0,.249,2.062,1.3,1.3,0,0,0,.25-.562h.531a.239.239,0,0,1,.156.062.167.167,0,0,1,.094.125V32.27a1.28,1.28,0,0,0-.625.469,1.489,1.489,0,0,0,.25,2.093,1.518,1.518,0,0,0,2.093-.25,1.494,1.494,0,0,0-.281-2.093,1.189,1.189,0,0,0-.531-.25V31.146Zm-.156,4.874a1.5,1.5,0,0,0-2.093.281,1.525,1.525,0,0,0,.25,2.093,1.265,1.265,0,0,0,.281.156v.219a.465.465,0,0,1-.125.281.639.639,0,0,1-.281.156h-3.125a1.775,1.775,0,0,0-1.156.437,1.9,1.9,0,0,0-.594,1.094v4.249a1.6,1.6,0,0,0-.656.469,1.518,1.518,0,0,0,.25,2.093,1.481,1.481,0,1,0,1.812-2.343c-.031-.031-.094-.062-.125-.094V40.864a.319.319,0,0,1,.156-.25.436.436,0,0,1,.281-.094h3.25a1.771,1.771,0,0,0,1.094-.562,1.677,1.677,0,0,0,.469-1.187v-.25a1.337,1.337,0,0,0,.5-.437,1.4,1.4,0,0,0-.187-2.062M183.633,50.894a1.47,1.47,0,0,0,2.094-.281,1.491,1.491,0,1,0-2.343-1.844,1.865,1.865,0,0,0-.187.344h-8a.188.188,0,0,1-.125-.031.459.459,0,0,1-.187-.156.1.1,0,0,1-.031-.062v-.875a1.2,1.2,0,0,0-.406-.75,1.233,1.233,0,0,0-.781-.312h-4.218a1.513,1.513,0,0,0-1.25-.687,1.484,1.484,0,1,0,1.5,1.531h4a.284.284,0,0,1,.219.094.316.316,0,0,1,.125.219v.844a.628.628,0,0,0,.125.406,1.109,1.109,0,0,0,.625.562.993.993,0,0,0,.406.062h7.874a1.812,1.812,0,0,0,.562.937m-6.187-6.03a1.5,1.5,0,1,0,.249,2.125c.031-.062.063-.094.094-.156h6.749a.282.282,0,0,0,.156-.031.688.688,0,0,0,.25-.031.833.833,0,0,0,.437-.219,1.431,1.431,0,0,0,.594-.812.636.636,0,0,1,.031-.156v-.344a1.331,1.331,0,0,0,.625-.469,1.481,1.481,0,1,0-2.343-1.812,1.518,1.518,0,0,0,.25,2.093,1.3,1.3,0,0,0,.406.219V45.4c0,.031,0,.031-.031.094a.68.68,0,0,1-.156.25c-.031.031-.094.031-.156.062,0,0-.062,0-.062.031h-6.624a1.262,1.262,0,0,0-.469-.969m16.529,4.312a1.489,1.489,0,0,0-2.093.25c-.062.094-.094.187-.156.281h-3.5a1.7,1.7,0,0,0-.906.25,1.5,1.5,0,0,0-.625,1,1.078,1.078,0,0,0-.031.281V51.3a1.331,1.331,0,0,0-.625.469,1.491,1.491,0,1,0,2.093-.25,1.434,1.434,0,0,0-.437-.219v-.187a.531.531,0,0,1,.187-.312.239.239,0,0,1,.156-.062h3.531a1.669,1.669,0,0,0,.531.781,1.5,1.5,0,0,0,1.875-2.343M153.106,6.118V8.274a1.249,1.249,0,0,0,.312.812,1.157,1.157,0,0,0,.75.375h2.375a.115.115,0,0,0,.094.031c.063.031.094.094.125.219V12.68a1.5,1.5,0,0,0-.844,1.344,1.467,1.467,0,0,0,1.469,1.469,1.494,1.494,0,0,0,1.5-1.469,1.446,1.446,0,0,0-1.187-1.437V9.649a.61.61,0,0,0-.031-.219,1.194,1.194,0,0,0-.469-.687.968.968,0,0,0-.406-.187c-.062,0-.125-.031-.219-.031h-2.25a.27.27,0,0,1-.187-.094.528.528,0,0,1-.062-.156V6.118a.444.444,0,0,1,.063-.187.267.267,0,0,1,.187-.094c0-.031.063-.031.094-.031h.906a1.475,1.475,0,0,0,.781-.344,1.313,1.313,0,0,0,.375-.781V2.806a1.527,1.527,0,0,0,1-1.406,1.484,1.484,0,1,0-1.937,1.406v1.75a.527.527,0,0,1-.062.156.284.284,0,0,1-.219.094h-.844a.964.964,0,0,0-.281.031,1.168,1.168,0,0,0-.719.437,1.232,1.232,0,0,0-.312.844m-16.56,6.562a1.123,1.123,0,0,0-.062.344v5.218a1.549,1.549,0,0,0,.25.625,1.506,1.506,0,0,0,.531.375c.094.031.219.062.344.094a.282.282,0,0,0,.156.031H145.2a.34.34,0,0,1,.156-.031.969.969,0,0,0,.562-.281,1.373,1.373,0,0,0,.375-.562,1.281,1.281,0,0,0,.031-.344V12.523a1.5,1.5,0,1,0-.938,0v5.718a.431.431,0,0,1-.094.125c-.031.031-.094.031-.156.062h-7.4c-.031,0-.031,0-.094-.031-.031,0-.062-.031-.125-.094a.237.237,0,0,1-.062-.125V13.086a.316.316,0,0,0,.031-.094.167.167,0,0,1,.094-.125c.063-.031.094-.062.125-.062h1.344a1.477,1.477,0,1,0,1.406-1.938,1.416,1.416,0,0,0-1.375,1h-1.5a1.056,1.056,0,0,0-.594.281.909.909,0,0,0-.437.531M155.262,18.3a1.551,1.551,0,0,0-.406-.687,1.986,1.986,0,0,0-.687-.437,1.387,1.387,0,0,0-.406-.062H151.2a1.552,1.552,0,0,0-1.281-.75,1.5,1.5,0,1,0,1.406,2h2.406c.031,0,.063.031.094.031.063.031.094.062.156.094a.682.682,0,0,1,.094.156v3.343a1.476,1.476,0,1,0,2.031,1.375,1.551,1.551,0,0,0-.781-1.312V18.71a1.583,1.583,0,0,0-.062-.406m-11.342,8.28c0,.062-.062.094-.094.125a.237.237,0,0,1-.125.062h-.937a1.492,1.492,0,1,0-1.406,1.969,1.475,1.475,0,0,0,1.437-1.156h.812a.4.4,0,0,0,.187-.031,1.3,1.3,0,0,0,.562-.25,1.11,1.11,0,0,0,.344-.5,1.375,1.375,0,0,0,.063-.312V22.272a.563.563,0,0,0-.062-.312,1.11,1.11,0,0,0-.344-.5,1.157,1.157,0,0,0-.562-.25H140.39a1.484,1.484,0,1,0-.062.812H143.7a.237.237,0,0,1,.125.062.43.43,0,0,1,.094.125v4.374m-.937,5.812a1.461,1.461,0,0,0,1.375-.937h2.593a1.829,1.829,0,0,0,.406-.062,1.683,1.683,0,0,0,.406-.219,1.067,1.067,0,0,0,.406-.75.61.61,0,0,0,.031-.219V28.9a.56.56,0,0,1,.156-.219h9.186a1.442,1.442,0,1,0-.062-.938h-9.186a1.232,1.232,0,0,0-.437.156,1.116,1.116,0,0,0-.594.656,1.139,1.139,0,0,0-.062.469v1.344c0,.094-.062.125-.125.187-.031,0-.062.031-.094.062h-2.656a1.478,1.478,0,0,0-2.906.406,1.564,1.564,0,0,0,1.562,1.375m29.965-13.467a.244.244,0,0,1-.125-.125.386.386,0,0,0-.062-.094V11.649A1.512,1.512,0,0,0,174.1,10.18a1.484,1.484,0,0,0-2.968,0,1.5,1.5,0,0,0,.844,1.344V18.71a1.089,1.089,0,0,0,.187.531,1.671,1.671,0,0,0,.406.406,1.07,1.07,0,0,0,.562.125h5.218a1.353,1.353,0,0,1,.156.031.244.244,0,0,1,.125.125.449.449,0,0,1,.062.094v5.531a.239.239,0,0,1-.062.156.684.684,0,0,1-.156.094c-.031,0-.062.031-.094.031h-1.09a1.383,1.383,0,0,0-.562-1.031,1.491,1.491,0,1,0,.25,2.094,1.744,1.744,0,0,0,.156-.25h1.312a.913.913,0,0,0,.281-.062,1.236,1.236,0,0,0,.469-.312.952.952,0,0,0,.25-.5,1.652,1.652,0,0,0,.031-.375V20.054a1.089,1.089,0,0,0-.187-.531,1.53,1.53,0,0,0-.406-.375,1.053,1.053,0,0,0-.531-.156H173.1c-.062-.031-.125-.031-.156-.062M160.636,26.8a1.443,1.443,0,0,0,.781.875,1.226,1.226,0,0,0,.562.125H171.2a1.063,1.063,0,0,0,.312-.031,1.2,1.2,0,0,0,.531-.25,1.783,1.783,0,0,0,.406-.437,1.986,1.986,0,0,0,.187-.562V24.209a1.5,1.5,0,0,0,.844-1.344,1.474,1.474,0,0,0-1.469-1.5A1.5,1.5,0,0,0,171.6,24.3v2.062c-.031.062-.031.125-.062.156-.031.062-.062.125-.125.125a.683.683,0,0,0-.156.094h-9.249a.4.4,0,0,1-.187-.031.418.418,0,0,1-.219-.25.137.137,0,0,1-.031-.094V23.991a.444.444,0,0,1,.063-.187.416.416,0,0,1,.281-.187h3.625a1.463,1.463,0,0,0,1.344.844,1.489,1.489,0,1,0-1.437-1.906h-3.406a1.4,1.4,0,0,0-.344.031,1.425,1.425,0,0,0-.969.687.936.936,0,0,0-.187.562.777.777,0,0,0-.031.25v2.437a.561.561,0,0,1,.125.281m-14.561,9.186a1.479,1.479,0,0,0-1.375.906h-1.344a.452.452,0,0,1-.219-.062.531.531,0,0,1-.187-.187.589.589,0,0,1-.062-.25V34.3a1.064,1.064,0,0,0-.031-.312,1.721,1.721,0,0,0-.375-.844,1.647,1.647,0,0,0-.75-.531,2.189,2.189,0,0,0-.437-.094h-.469a1.555,1.555,0,0,0-1.344-.844,1.494,1.494,0,0,0-1.469,1.5,1.472,1.472,0,0,0,2.843.531h.281c.031,0,.031,0,.094.031a.236.236,0,0,1,.125.031.362.362,0,0,1,.219.156.284.284,0,0,1,.094.219v2.218a1.657,1.657,0,0,0,.219.875,1.8,1.8,0,0,0,.625.656,1.856,1.856,0,0,0,.812.219H144.7a1.5,1.5,0,0,0,2.843-.625,1.455,1.455,0,0,0-1.469-1.5M158.043,37.9a1.474,1.474,0,0,0-1.5,1.469,1.5,1.5,0,0,0,.969,1.406v1.344a.109.109,0,0,0-.031.062.432.432,0,0,1-.094.125.137.137,0,0,1-.156.031h-6.374a.115.115,0,0,1-.094-.031.431.431,0,0,1-.094-.125.031.031,0,0,0-.031-.031V41.9a1.519,1.519,0,1,0-.656-.031v.344a.355.355,0,0,0,.094.25.864.864,0,0,0,.344.406.772.772,0,0,0,.281.125c.031,0,.063.031.125.031h6.4a.944.944,0,0,0,.5-.156.864.864,0,0,0,.344-.406.746.746,0,0,0,.063-.281V40.864a1.486,1.486,0,0,0-.094-2.968m24.684-3a1.491,1.491,0,1,0,1.844-2.343,1.466,1.466,0,0,0-.687-.281c-.031-.031-.031-.031-.031-.094a1.236,1.236,0,0,0-.469-.312.966.966,0,0,0-.25-.062.463.463,0,0,0-.219-.031H173.23a.282.282,0,0,1-.156-.031.431.431,0,0,1-.125-.094.239.239,0,0,1-.062-.156V30.4a.915.915,0,0,0-.219-.5,1.529,1.529,0,0,0-.406-.375,1.144,1.144,0,0,0-.562-.125h-3.406a.865.865,0,0,0-.281.031,1.083,1.083,0,0,0-.5.25,1.519,1.519,0,0,0-.344.437,1.472,1.472,0,0,0-.125.531V31.99a1.463,1.463,0,1,0,.875-.062V30.459a.431.431,0,0,1,.094-.125c.062-.031.094-.062.156-.062h3.5a.234.234,0,0,1,.156.031.432.432,0,0,1,.125.094.45.45,0,0,1,.062.094v1.094a1.539,1.539,0,0,0,.187.531,1.17,1.17,0,0,0,.406.375,1.079,1.079,0,0,0,.562.156H182.6c-.031.062-.094.094-.156.156a1.494,1.494,0,0,0,.281,2.093m-33.527.531h13.748a.8.8,0,0,0,.219-.062,1.112,1.112,0,0,0,.687-.5,1.339,1.339,0,0,0,.156-.406h0a1.476,1.476,0,1,0-1.844-1.437,1.551,1.551,0,0,0,.937,1.406h0a.74.74,0,0,1-.156.156H149.106a1.492,1.492,0,1,0-2.344-1.218,1.476,1.476,0,0,0,1.406,1.469,1.272,1.272,0,0,0,.375.437,1.184,1.184,0,0,0,.406.187.776.776,0,0,1,.25-.031M139.013,30.46a1.474,1.474,0,0,0-1.5-1.469,1.5,1.5,0,0,0-1.437,1.156h-.437c-.031,0-.062-.031-.094-.031a.172.172,0,0,1-.156-.094.264.264,0,0,1-.062-.187V21.491a.962.962,0,0,0-.094-.406,1.173,1.173,0,0,0-.5-.594,1.911,1.911,0,0,0-.375-.156c-.062,0-.125-.031-.219-.031h-2.093a.172.172,0,0,1-.156-.094.444.444,0,0,1-.062-.187V14.992a.115.115,0,0,1,.031-.094.681.681,0,0,1,.156-.125c.031,0,.063-.031.094-.031h2.281a1.114,1.114,0,0,0,.719-.25,1.275,1.275,0,0,0,.469-.656,1.584,1.584,0,0,0,.063-.406V9.524h.031a1.484,1.484,0,0,0,0-2.968A1.467,1.467,0,0,0,134.2,8.024a1.513,1.513,0,0,0,.5,1.125v4.406a.4.4,0,0,1-.125.187.335.335,0,0,1-.187.062h-2.281a1.569,1.569,0,0,0-.375.062,1.417,1.417,0,0,0-.656.469,1.911,1.911,0,0,0-.156.375.733.733,0,0,0-.062.375v5.062a1.291,1.291,0,0,0,.344.719,1.449,1.449,0,0,0,.719.375h2.218c.031,0,.063.031.094.031a.144.144,0,0,1,.094.156l.031.031v8.28a1.042,1.042,0,0,0,.25.75,1.173,1.173,0,0,0,.656.437,1.329,1.329,0,0,0,.344.062h.531a1.491,1.491,0,0,0,1.344.875,1.4,1.4,0,0,0,1.531-1.406m6.562-25.9a1.443,1.443,0,0,0,1.312-.812h4.343a1.844,1.844,0,0,0,.437-.062,1.521,1.521,0,0,0,.375.031,1.484,1.484,0,1,0-1.5-1.5,1.645,1.645,0,0,0,.125.562h-3.625a1.487,1.487,0,1,0-1.468,1.781m14.467.594a1.507,1.507,0,0,0,1.375-.937h2.375c.031,0,.031,0,.063.031l.031.031a1.453,1.453,0,0,0-.875,1.375,1.484,1.484,0,1,0,1.844-1.437V4.181a1.059,1.059,0,0,0-.281-.437.906.906,0,0,0-.469-.281.776.776,0,0,0-.25-.031c-.031,0-.094-.031-.125-.031h-2.187a1.5,1.5,0,0,0-2.968.281,1.467,1.467,0,0,0,1.469,1.469m.969,10.311a1.119,1.119,0,0,0,.344.125h6.312a1.568,1.568,0,0,0,.375-.062,1.341,1.341,0,0,0,.594-.437,1.065,1.065,0,0,0,.219-.687V13.023a1.507,1.507,0,0,0,1.219-1.469,1.484,1.484,0,1,0-2.968,0,1.507,1.507,0,0,0,.937,1.375V14.4a1.225,1.225,0,0,1-.062.187c-.062.062-.094.125-.187.125H161.48a.236.236,0,0,1-.125-.031.376.376,0,0,1-.156-.156c-.031-.031-.031-.062-.062-.156V11.93a1.482,1.482,0,1,0-1.875-1.406,1.452,1.452,0,0,0,1.062,1.406v2.437a1.105,1.105,0,0,1,.031.187,1.119,1.119,0,0,0,.125.344,1.162,1.162,0,0,0,.531.562m6.718-12.155A1.51,1.51,0,0,0,169.2,2.15h2.156a.257.257,0,0,1,.187.125.188.188,0,0,1,.031.125v.406a.609.609,0,0,0,.031.25,1.233,1.233,0,0,0,.187.469.8.8,0,0,0,.375.344,1.473,1.473,0,0,0,.469.187h2.593a1.47,1.47,0,1,0,1.406-1.906,1.507,1.507,0,0,0-1.375.937h-2.5c-.031,0-.062-.031-.125-.031-.031-.031-.062-.031-.062-.094-.031-.031-.031-.062-.062-.125V2.493a.532.532,0,0,0-.031-.219.842.842,0,0,0-.156-.469,1.139,1.139,0,0,0-.812-.594c-.062,0-.156-.031-.219-.031H169.1a1.478,1.478,0,0,0-2.812.625,1.429,1.429,0,0,0,1.437,1.5m13.655,6.03a1.474,1.474,0,0,0,1.469-1.5A1.446,1.446,0,0,0,181.665,6.4V6.243a.444.444,0,0,1,.063-.187.172.172,0,0,1,.156-.094c.031,0,.031-.031.063-.031h1.406c.031,0,.063.031.094.031s.062.031.094.031a.312.312,0,0,1,.125.156.151.151,0,0,1,0,.125v6.874a1.828,1.828,0,0,0,.063.406,1.056,1.056,0,0,0,.187.375,1.275,1.275,0,0,0,.656.469,1.387,1.387,0,0,0,.406.062h1.312a1.511,1.511,0,0,0,.406.5,1.478,1.478,0,1,0-.281-2.093,1.744,1.744,0,0,0-.281.656h-1.281a.312.312,0,0,1-.156-.125c-.031-.031-.031-.031-.031-.094,0-.031-.031-.062-.031-.125V6.3a1.78,1.78,0,0,0-.035-.4,1.051,1.051,0,0,0-.5-.656.694.694,0,0,0-.344-.156.769.769,0,0,0-.375-.031h-1.469a.4.4,0,0,0-.187.031,1.3,1.3,0,0,0-.687.469,1.347,1.347,0,0,0-.25.75v.281a1.487,1.487,0,0,0-.844,1.312,1.414,1.414,0,0,0,1.437,1.437M141.451,7.3a1.446,1.446,0,0,0,1.281-.75h6.562c.031.031.062.031.094.062s.031.062.063.094V8.93a1.476,1.476,0,1,0,.875.062V6.8a.4.4,0,0,0-.031-.187h0a.973.973,0,0,0-.219-.562,1.206,1.206,0,0,0-.531-.344.924.924,0,0,0-.312-.062H142.89a1.511,1.511,0,0,0-1.469-1.312,1.467,1.467,0,0,0-1.469,1.469,1.52,1.52,0,0,0,1.5,1.5m23.216,33.84a1.538,1.538,0,0,0-1.094-1.437v-1.6c0-.062.031-.094.063-.156.031-.031.094-.062.125-.094.031,0,.063,0,.063-.031H176.79a1.029,1.029,0,0,0,.594-.187.852.852,0,0,0,.406-.406,1,1,0,0,0,.156-.594v-.219a1.525,1.525,0,1,0-.875.156v.062a1.356,1.356,0,0,1-.031.156.244.244,0,0,1-.125.125.33.33,0,0,1-.156.062H163.7a.993.993,0,0,0-.281.094,1.384,1.384,0,0,0-.469.375,1.658,1.658,0,0,0-.25.531v1.75a1.482,1.482,0,0,0-1.031,1.406,1.5,1.5,0,0,0,1.5,1.5,1.481,1.481,0,0,0,1.5-1.5m2.437,4.312H170.2a1.3,1.3,0,0,0,.75-.281,1.135,1.135,0,0,0,.406-.687,1,1,0,0,0,.031-.219V42.051c0-.062.031-.094.031-.125.031-.062.125-.094.187-.125a.188.188,0,0,1,.125-.031h7.437a1.419,1.419,0,0,0,.562,1.125,1.518,1.518,0,0,0,2.093-.25,1.494,1.494,0,0,0-.281-2.093,1.525,1.525,0,0,0-2.093.25.115.115,0,0,0-.031.094H171.7a.793.793,0,0,0-.375.062,1.172,1.172,0,0,0-.656.5.886.886,0,0,0-.125.406.532.532,0,0,0-.031.219V44.3c0,.062-.062.125-.125.187a.452.452,0,0,1-.219.062h-3a1.487,1.487,0,1,0-1.437,1.812,1.464,1.464,0,0,0,1.375-.906m21.247.969a1.494,1.494,0,1,0,2.093-.281,1.323,1.323,0,0,1-.219-.156V43.77a1.2,1.2,0,0,0,.344-.344,1.492,1.492,0,0,0-.25-2.093,1.518,1.518,0,0,0-2.093.25,1.494,1.494,0,0,0,.281,2.093,2.233,2.233,0,0,0,.469.25v2.031a1.331,1.331,0,0,0-.625.469m2.562-33.277a1.442,1.442,0,0,0,1.937-.125V17.68c0,.062,0,.156.031.187a1.046,1.046,0,0,0,.344.625,1.531,1.531,0,0,0,.625.344c.063,0,.125.031.187.031h3.031a.213.213,0,0,1,.156.094.266.266,0,0,1,.094.156v1.219a1.434,1.434,0,0,0-.875.531,1.494,1.494,0,1,0,2.093-.281,1.04,1.04,0,0,0-.312-.187V19.085a.4.4,0,0,0-.031-.187,1.046,1.046,0,0,0-.344-.625,1.316,1.316,0,0,0-.625-.312.688.688,0,0,0-.25-.031h-2.906a.266.266,0,0,1-.156-.094.481.481,0,0,1-.094-.219V13.023a1.868,1.868,0,0,0-.062-.375.983.983,0,0,0-.406-.531,1.552,1.552,0,0,0-.562-1.312,1.492,1.492,0,0,0-2.093.25,1.43,1.43,0,0,0,.219,2.093m-4.249,3.468a1.518,1.518,0,0,0-2.093.25,2.33,2.33,0,0,0-.219.375h-2.687a1.237,1.237,0,0,0-.594.219.971.971,0,0,0-.406.469c-.031.094-.062.187-.094.312,0,.031-.031.094-.031.125v6.343a1.422,1.422,0,0,0,.156.625.987.987,0,0,0,.437.437,1.1,1.1,0,0,0,.625.156h.406a2.33,2.33,0,0,0,.437.531,1.492,1.492,0,1,0-.249-2.093,1.2,1.2,0,0,0-.281.687h-.312a1.354,1.354,0,0,1-.156-.031.244.244,0,0,1-.125-.125.282.282,0,0,1-.031-.156V18.366c0-.031.031-.062.031-.094.031-.031.063-.094.125-.125a.237.237,0,0,1,.125-.062h2.593a1.525,1.525,0,0,0,.531.875,1.481,1.481,0,1,0,1.812-2.343m.844,7.062a1.481,1.481,0,1,0,2.343,1.812,1.226,1.226,0,0,0,.25-.437h3.625c.063,0,.094.031.156.062a.244.244,0,0,1,.125.125v2.093a1.466,1.466,0,0,0,.281.687,1.217,1.217,0,0,0,.625.406,1.172,1.172,0,0,0,.344.031h3.156a1.208,1.208,0,0,0,.969-.406,1.286,1.286,0,0,0,.312-.656v-.281A1.481,1.481,0,1,0,198.1,24.8a1.521,1.521,0,0,0,.25,2.093,2.33,2.33,0,0,0,.375.219v.156c0,.062-.031.094-.062.156a.683.683,0,0,1-.156.094h-3.375c-.062-.031-.094-.062-.156-.094a.364.364,0,0,1-.062-.219V25.241a1.647,1.647,0,0,0-.094-.375,1.21,1.21,0,0,0-1.156-.781h-3.625a1.505,1.505,0,0,0-.5-.687,1.423,1.423,0,0,0-2.031.281m-4.031,33.558V55.424a1.582,1.582,0,0,0-.062-.406,1.5,1.5,0,0,0-.406-.719,1.618,1.618,0,0,0-.687-.437,2.15,2.15,0,0,0-.406-.062h-.125a1.453,1.453,0,0,0-.531-.844,1.481,1.481,0,1,0,.281,2.093l.187-.281h.156c.063,0,.125.031.187.031a.952.952,0,0,1,.312.219.648.648,0,0,1,.187.312.311.311,0,0,1,.031.125V57.33a3.884,3.884,0,1,0,4.5,3.843,4.023,4.023,0,0,0-3.625-3.937m9.155-22.122a1.521,1.521,0,0,0,2.094-.25,1.448,1.448,0,0,0-.25-2.062,1.489,1.489,0,0,0-2.093.25,1.744,1.744,0,0,1-.156.25h-2.437a.776.776,0,0,0-.25.031.871.871,0,0,0-.406.219,1.315,1.315,0,0,0-.5.781.689.689,0,0,0-.031.25v.125a1.26,1.26,0,0,0-.562.437,1.5,1.5,0,0,0,.281,2.093,1.476,1.476,0,0,0,2.062-.25,1.492,1.492,0,0,0-.25-2.093,2.555,2.555,0,0,0-.594-.281h0V34.52c0-.062.063-.125.125-.187.031-.031.063-.031.094-.062H192.1a1.554,1.554,0,0,0,.531.844M128.2,16.554h.281a1.172,1.172,0,0,0,.344-.031,1.275,1.275,0,0,0,.656-.469,1.347,1.347,0,0,0,.25-.75V11.617a.115.115,0,0,1,.031-.094.134.134,0,0,1,.125-.125c.031,0,.062-.031.125-.031h.562a1.445,1.445,0,0,0,1.281.719,1.469,1.469,0,1,0-1.469-1.656h-.406a.4.4,0,0,0-.187.031,1.762,1.762,0,0,0-.375.125,1.917,1.917,0,0,0-.531.594.865.865,0,0,0-.094.406v3.75a.444.444,0,0,1-.062.187.312.312,0,0,1-.156.125H128.3a1.488,1.488,0,1,0-1.437,1.937,1.77,1.77,0,0,0,1.344-1.031m3.656,9.5a1.471,1.471,0,0,0-1.219.656.115.115,0,0,1-.031-.094V23.022a1.294,1.294,0,0,0-.187-.719,1.268,1.268,0,0,0,.125-.594,1.484,1.484,0,1,0-1.5,1.469.532.532,0,0,0,.219-.031v3.437c0,.094.031.187.031.25a1.538,1.538,0,0,0,.187.531,1.887,1.887,0,0,0,.812.75c.094.062.187.062.281.125a1.5,1.5,0,0,0,2.812-.687,1.548,1.548,0,0,0-1.531-1.5" transform="translate(9 6.09)"/>
  </g>
</svg>
