<?xml version="1.0" encoding="UTF-8"?>
<svg width="21px" height="23px" viewBox="0 0 21 23" version="1.1" xmlns="http://www.w3.org/2000/svg" xmlns:xlink="http://www.w3.org/1999/xlink">
    <!-- Generator: Sketch 52.3 (67297) - http://www.bohemiancoding.com/sketch -->
    <title>user</title>
    <desc>Created with Sketch.</desc>
    <g id="r" stroke="none" stroke-width="1" fill="none" fill-rule="evenodd">
        <g id="ASSISTANT_FORM_CONTACTO" transform="translate(-122.000000, -148.000000)" fill-rule="nonzero">
            <g id="Group-6" transform="translate(66.000000, 118.000000)">
                <g id="user" transform="translate(56.500000, 30.500000)">
                    <path d="M5.06664477,14.2692308 L4.61538462,14.2692308 C2.61866283,14.2692308 1,15.8878936 1,17.8846154 C1,19.8813372 2.61866283,21.5 4.61538462,21.5 L7.1586237,21.5 L5.06664477,14.2692308 Z M15.2884615,21.5 C17.2851833,21.5 18.9038462,19.8813372 18.9038462,17.8846154 C18.9038462,15.8878936 17.2851833,14.2692308 15.2884615,14.2692308 L14.7421956,14.2692308 L12.7035116,21.5 L15.2884615,21.5 Z M11.3825793,22.5 L13.9851545,13.2692308 L15.2884615,13.2692308 C17.8374681,13.2692308 19.9038462,15.3356088 19.9038462,17.8846154 C19.9038462,20.4336219 17.8374681,22.5 15.2884615,22.5 L9.93576511,22.5 L11.3825793,22.5 Z M4.61538462,22.5 C2.06637808,22.5 3.1216327e-16,20.4336219 0,17.8846154 C-3.1216327e-16,15.3356088 2.06637808,13.2692308 4.61538462,13.2692308 L5.81833953,13.2692308 L8.48895093,22.5 L9.93576511,22.5 L4.61538462,22.5 Z" id="Rectangle-6" fill="#2877FC"></path>
                    <path d="M9.92307692,11.8076923 C6.52440154,11.8076923 3.76923077,9.05252154 3.76923077,5.65384615 C3.76923077,2.25517077 6.52440154,-0.5 9.92307692,-0.5 C13.3217523,-0.5 16.0769231,2.25517077 16.0769231,5.65384615 C16.0769231,9.05252154 13.3217523,11.8076923 9.92307692,11.8076923 Z M9.92307692,10.8076923 C12.7694676,10.8076923 15.0769231,8.50023679 15.0769231,5.65384615 C15.0769231,2.80745552 12.7694676,0.5 9.92307692,0.5 C7.07668629,0.5 4.76923077,2.80745552 4.76923077,5.65384615 C4.76923077,8.50023679 7.07668629,10.8076923 9.92307692,10.8076923 Z" id="Oval" fill="#2878FD"></path>
                    <path d="M9.28595362,14.1643155 C9.66702962,14.5096676 10.2479157,14.5096689 10.6289932,14.1643186 L11.1498347,13.6923077 L8.76512034,13.6923077 L9.28595362,14.1643155 Z M8.72651899,12.6923077 L11.1884408,12.6923077 C11.7325016,12.6923077 12.17355,13.1333561 12.17355,13.6774169 C12.17355,13.9555014 12.0560168,14.2206323 11.8499595,14.4073711 L11.3005114,14.9053067 C10.5383562,15.5960074 9.37658412,15.5960047 8.61443213,14.9053006 L8.06499582,14.4073711 C7.66185418,14.042022 7.63121733,13.4190371 7.99656649,13.0158955 C8.18330551,12.8098398 8.44843553,12.6923077 8.72651899,12.6923077 Z" id="Rectangle-11" fill="#2877FC"></path>
                    <polygon id="Rectangle-13" fill="#2877FC" transform="translate(9.939964, 19.112054) rotate(-135.000000) translate(-9.939964, -19.112054) " points="8.57351792 15.6872218 13.3554656 21.2204818 12.5445093 21.716599 12.0390608 22.5368866 6.5244632 17.7362765"></polygon>
                </g>
            </g>
        </g>
    </g>
</svg>