<svg width="66pt" height="22pt" viewBox="0 0 68 24" xmlns="http://www.w3.org/2000/svg"><g id="fontsvg1670853013403" stroke-linecap="round" fill-rule="evenodd" fill="#ffffff"><path d="M 19.482 10.929 L 19.6 10.929 A 0.102 0.102 0 0 0 19.658 10.875 Q 19.915 10.497 20.889 7.472 Q 21.753 4.835 22.412 4.835 A 0.062 0.062 0 0 1 22.445 4.784 Q 22.527 4.729 22.813 4.718 A 3.219 3.219 0 0 1 22.822 4.718 A 3.185 3.185 0 0 1 23.419 4.831 Q 24.404 5.129 24.404 6.065 L 24.404 6.241 Q 24.404 6.9 22.061 12.218 A 277.332 277.332 0 0 1 21.155 14.448 Q 19.563 18.317 18.936 19.407 A 3.382 3.382 0 0 1 18.779 19.659 A 3.08 3.08 0 0 1 18.397 19.84 A 2.3 2.3 0 0 1 18.018 19.952 Q 16.487 19.768 16.437 18.624 A 1.794 1.794 0 0 1 16.436 18.546 L 16.436 18.37 Q 16.436 17.755 17.959 14.62 L 17.959 14.503 Q 14.998 7.577 14.709 6.757 A 0.55 0.55 0 0 1 14.678 6.651 L 14.678 6.124 A 1.206 1.206 0 0 1 15.263 5.052 Q 15.603 4.831 16.143 4.718 A 1.659 1.659 0 0 1 16.683 4.8 Q 17.164 4.966 17.408 5.461 A 1.878 1.878 0 0 1 17.49 5.655 Q 19.161 10.319 19.441 10.862 A 0.314 0.314 0 0 0 19.482 10.929 Z M 50.977 0.587 L 51.035 0.587 A 2.003 2.003 0 0 1 51.834 1.626 Q 52.031 2.174 52.031 2.931 L 52.031 13.888 Q 52.031 15.777 50.859 16.349 A 3.748 3.748 0 0 1 50.58 16.418 Q 50.447 16.445 50.33 16.457 A 1.732 1.732 0 0 1 50.156 16.466 L 49.863 16.466 A 1.326 1.326 0 0 1 49.255 16.309 Q 49.046 16.202 48.834 16.021 A 3.63 3.63 0 0 1 48.457 15.646 A 3.028 3.028 0 0 1 46.334 16.523 A 3.967 3.967 0 0 1 46.23 16.524 L 45.879 16.524 A 4.359 4.359 0 0 1 43.139 15.549 A 6.31 6.31 0 0 1 42.363 14.825 L 42.363 14.767 A 4.87 4.87 0 0 0 45.352 15.763 Q 46.655 15.763 47.695 14.942 L 47.754 14.942 A 3.123 3.123 0 0 0 48.229 15.352 Q 48.54 15.567 48.861 15.65 A 1.642 1.642 0 0 0 49.277 15.704 A 1.868 1.868 0 0 0 50.293 15.441 Q 51.27 14.826 51.27 12.774 L 51.27 2.579 A 6.887 6.887 0 0 0 51.137 1.208 A 5.977 5.977 0 0 0 50.977 0.587 Z M 30.557 7.208 L 30.557 10.606 A 3.165 3.165 0 0 0 30.622 11.281 Q 30.835 12.255 31.745 12.398 A 2.153 2.153 0 0 0 32.08 12.423 L 32.139 12.423 A 1.563 1.563 0 0 0 32.903 12.247 Q 33.721 11.797 33.721 10.196 L 33.721 6.564 A 4.453 4.453 0 0 1 33.786 5.765 Q 34.036 4.401 35.246 4.34 A 2.293 2.293 0 0 1 35.361 4.337 Q 36.885 4.337 36.885 7.091 L 36.885 10.021 A 11.404 11.404 0 0 1 36.786 11.591 Q 36.545 13.313 35.721 14.161 A 2.566 2.566 0 0 1 34.951 14.708 A 4.967 4.967 0 0 1 33.205 15.328 A 6.588 6.588 0 0 1 32.139 15.411 A 6.661 6.661 0 0 1 30.491 15.222 A 3.945 3.945 0 0 1 27.744 12.95 A 5.464 5.464 0 0 1 27.393 11.017 L 27.393 6.446 Q 27.393 4.488 28.806 4.348 A 2.295 2.295 0 0 1 29.033 4.337 A 1.241 1.241 0 0 1 30.211 5.124 Q 30.495 5.712 30.546 6.741 A 9.505 9.505 0 0 1 30.557 7.208 Z M 8.73 12.481 L 3.691 12.481 A 0.066 0.066 0 0 0 3.662 12.515 Q 3.539 12.717 3.01 14.122 A 127.48 127.48 0 0 0 2.813 14.649 A 2.935 2.935 0 0 1 2.501 14.973 Q 2.071 15.353 1.641 15.353 L 1.582 15.353 Q 0.211 15.353 0.013 13.825 A 3.663 3.663 0 0 1 0 13.712 A 1.126 1.126 0 0 1 0.039 13.485 Q 0.275 12.519 1.926 8.131 A 446.262 446.262 0 0 1 2.52 6.564 A 71.547 71.547 0 0 1 3.103 4.87 Q 4.191 1.844 4.795 1.295 A 0.384 0.384 0 0 1 5.039 1.173 A 2.199 2.199 0 0 1 6.328 0.763 A 2.288 2.288 0 0 1 8.258 1.806 Q 8.816 2.58 9.141 3.927 A 850.134 850.134 0 0 1 9.886 5.984 Q 12.334 12.771 12.539 13.771 A 1.813 1.813 0 0 1 12.427 14.434 Q 12.124 15.209 11.003 15.342 A 3.628 3.628 0 0 1 10.898 15.353 A 1.511 1.511 0 0 1 9.616 14.648 Q 9.21 14.074 8.993 13.035 A 8.385 8.385 0 0 1 8.965 12.892 A 2.926 2.926 0 0 0 8.918 12.757 Q 8.815 12.481 8.73 12.481 Z M 50.859 1.759 L 50.859 13.243 Q 50.859 15.353 49.336 15.353 Q 48.553 15.353 47.986 14.534 A 3.353 3.353 0 0 1 47.871 14.356 L 47.695 14.356 A 2.98 2.98 0 0 1 45.658 15.39 A 4.2 4.2 0 0 1 45.234 15.411 Q 42.451 15.411 40.84 12.071 A 7.108 7.108 0 0 1 40.433 9.947 A 6.7 6.7 0 0 1 40.43 9.728 Q 40.43 6.285 43.594 4.571 A 4.862 4.862 0 0 1 44.639 4.313 A 4.226 4.226 0 0 1 45.176 4.278 L 45.527 4.278 A 2.96 2.96 0 0 1 46.404 4.402 A 2.282 2.282 0 0 1 47.52 5.157 L 47.578 5.157 A 0.227 0.227 0 0 0 47.718 5.022 Q 47.754 4.937 47.754 4.806 L 47.754 2.11 Q 47.754 0.153 49.167 0.012 A 2.295 2.295 0 0 1 49.395 0.001 Q 50.64 0.001 50.859 1.759 Z M 64.482 4.981 L 64.541 4.981 Q 65.529 5.534 65.537 7.355 A 6.799 6.799 0 0 1 65.537 7.384 L 65.537 13.829 A 4.537 4.537 0 0 1 65.453 14.738 Q 65.18 16.071 64.014 16.407 L 63.486 16.407 A 1.894 1.894 0 0 1 62.864 16.31 Q 62.354 16.134 62.051 15.637 A 2.02 2.02 0 0 1 62.021 15.587 L 61.963 15.587 Q 60.996 16.524 59.502 16.524 L 59.443 16.524 Q 57.275 16.524 55.869 14.884 L 55.928 14.884 Q 57.202 15.763 58.74 15.763 A 3.554 3.554 0 0 0 61.201 14.825 Q 61.86 15.646 62.783 15.646 A 1.868 1.868 0 0 0 63.799 15.382 Q 64.775 14.767 64.775 12.716 L 64.775 6.915 A 7.431 7.431 0 0 0 64.731 6.076 Q 64.683 5.655 64.583 5.296 A 3.882 3.882 0 0 0 64.482 4.981 Z M 61.26 5.392 L 61.436 5.392 A 1.661 1.661 0 0 1 61.745 4.856 Q 62.058 4.503 62.569 4.421 A 2.077 2.077 0 0 1 62.9 4.396 A 1.41 1.41 0 0 1 63.625 4.572 Q 64.365 5.005 64.365 6.505 L 64.365 13.302 A 3.533 3.533 0 0 1 64.295 14.041 Q 64.063 15.121 63.064 15.27 A 2.301 2.301 0 0 1 62.725 15.294 Q 61.968 15.294 61.35 14.236 A 4.719 4.719 0 0 1 61.318 14.181 L 61.26 14.181 A 3.394 3.394 0 0 1 60.19 15.064 A 3.25 3.25 0 0 1 58.682 15.411 Q 55.963 15.411 54.409 12.322 A 10.232 10.232 0 0 1 54.287 12.071 A 10.109 10.109 0 0 1 54.023 10.856 A 7.606 7.606 0 0 1 53.936 9.728 A 5.891 5.891 0 0 1 54.38 7.39 Q 54.971 6.008 56.347 5.076 A 7.476 7.476 0 0 1 57.1 4.63 A 3.153 3.153 0 0 1 57.801 4.39 Q 58.143 4.313 58.542 4.289 A 6.266 6.266 0 0 1 58.916 4.278 A 3.054 3.054 0 0 1 60.135 4.515 A 2.911 2.911 0 0 1 61.26 5.392 Z M 24.814 6.241 L 24.639 5.362 L 24.697 5.362 A 1.711 1.711 0 0 1 25.543 6.59 A 2.434 2.434 0 0 1 25.576 7.003 Q 25.576 7.618 23.408 12.628 A 540.295 540.295 0 0 1 22.717 14.299 Q 20.536 19.542 20.001 20.457 A 2.072 2.072 0 0 1 19.951 20.538 A 2.725 2.725 0 0 1 19.634 20.799 Q 19.251 21.065 18.896 21.065 L 18.604 21.065 A 1.845 1.845 0 0 1 17.765 20.879 Q 17.398 20.695 17.121 20.328 A 2.446 2.446 0 0 1 17.021 20.187 A 0.084 0.084 0 0 0 17.045 20.184 Q 17.08 20.174 17.08 20.128 Q 17.549 20.304 18.076 20.304 A 1.326 1.326 0 0 0 18.98 19.917 Q 19.717 19.246 20.291 17.412 A 14.84 14.84 0 0 0 20.303 17.374 Q 24.365 7.899 24.722 6.69 A 0.701 0.701 0 0 0 24.756 6.534 A 0.998 0.998 0 0 1 24.761 6.426 Q 24.767 6.373 24.779 6.329 A 0.378 0.378 0 0 1 24.814 6.242 Z M 36.943 4.923 L 37.002 4.923 Q 37.998 5.48 37.998 7.149 L 37.998 11.778 A 5.743 5.743 0 0 1 37.735 13.581 Q 37.157 15.335 35.306 16.082 A 6.439 6.439 0 0 1 34.482 16.349 A 3.235 3.235 0 0 1 33.999 16.462 Q 33.758 16.501 33.48 16.516 A 6.612 6.612 0 0 1 33.135 16.524 L 32.549 16.524 A 5.739 5.739 0 0 1 30.88 16.294 A 4.441 4.441 0 0 1 28.74 14.884 L 28.799 14.884 A 4.821 4.821 0 0 0 30.3 15.543 Q 30.938 15.708 31.686 15.749 A 9.305 9.305 0 0 0 32.197 15.763 A 6.818 6.818 0 0 0 34.04 15.532 Q 36.158 14.938 36.949 12.812 A 6.085 6.085 0 0 0 37.061 12.481 A 11.762 11.762 0 0 0 37.181 11.688 Q 37.226 11.293 37.234 10.942 A 6.632 6.632 0 0 0 37.236 10.782 L 37.236 6.564 A 4.959 4.959 0 0 0 37.164 5.695 A 3.796 3.796 0 0 0 36.943 4.923 Z M 8.73 1.817 L 8.73 1.7 L 8.789 1.7 A 4.365 4.365 0 0 1 9.521 2.637 Q 10.087 3.585 10.478 5.061 A 15.923 15.923 0 0 1 10.547 5.333 Q 13.595 13.587 13.651 14.444 A 0.455 0.455 0 0 1 13.652 14.474 L 13.652 14.649 A 1.858 1.858 0 0 1 13.467 15.503 Q 13.09 16.242 11.951 16.469 A 4.683 4.683 0 0 1 11.602 16.524 A 1.79 1.79 0 0 1 10.354 16.02 A 2.749 2.749 0 0 1 10.02 15.646 L 10.02 15.587 A 9.162 9.162 0 0 0 10.265 15.638 Q 10.494 15.683 10.648 15.697 A 1.44 1.44 0 0 0 10.781 15.704 L 11.074 15.704 Q 12.573 15.704 12.862 14.022 A 4.236 4.236 0 0 0 12.891 13.829 A 2.378 2.378 0 0 0 12.804 13.348 Q 12.406 11.763 10.195 5.743 Q 9.082 2.374 8.73 1.817 Z M 3.867 12.892 L 3.984 12.833 L 8.438 12.833 A 0.098 0.098 0 0 1 8.508 12.874 Q 8.611 12.994 8.714 13.461 A 6.637 6.637 0 0 1 8.73 13.536 L 8.613 13.595 L 4.629 13.595 Q 3.984 16.524 2.285 16.524 A 1.835 1.835 0 0 1 0.876 15.882 A 2.781 2.781 0 0 1 0.645 15.587 A 0.084 0.084 0 0 0 0.668 15.584 Q 0.703 15.574 0.703 15.528 A 1.507 1.507 0 0 0 0.947 15.642 Q 1.096 15.694 1.237 15.703 A 0.896 0.896 0 0 0 1.289 15.704 L 1.641 15.704 A 1.626 1.626 0 0 0 2.912 15.076 Q 3.406 14.498 3.735 13.389 A 9.791 9.791 0 0 0 3.867 12.892 Z M 30.615 4.923 L 30.674 4.923 A 1.884 1.884 0 0 1 31.472 5.923 Q 31.599 6.266 31.644 6.697 A 4.881 4.881 0 0 1 31.67 7.208 L 31.67 10.665 A 8.768 8.768 0 0 0 31.684 11.174 Q 31.71 11.627 31.787 11.954 A 0.084 0.084 0 0 0 31.764 11.957 Q 31.729 11.967 31.729 12.013 A 0.636 0.636 0 0 1 31.147 11.639 Q 30.975 11.324 30.927 10.743 A 5.968 5.968 0 0 1 30.908 10.255 L 30.908 6.388 A 2.957 2.957 0 0 0 30.874 5.962 Q 30.811 5.527 30.627 4.96 A 9.788 9.788 0 0 0 30.615 4.923 Z M 43.711 9.493 L 43.711 10.021 A 3.083 3.083 0 0 0 43.836 10.928 A 2.203 2.203 0 0 0 45.059 12.306 A 0.981 0.981 0 0 0 45.527 12.423 L 45.938 12.423 A 1.458 1.458 0 0 0 47.136 11.801 Q 47.476 11.36 47.695 10.606 A 1.595 1.595 0 0 0 47.735 10.399 Q 47.749 10.294 47.752 10.175 A 3.016 3.016 0 0 0 47.754 10.079 L 47.754 9.61 A 3.123 3.123 0 0 0 47.626 8.688 Q 47.331 7.731 46.353 7.294 A 3.109 3.109 0 0 0 46.289 7.267 A 0.446 0.446 0 0 0 46.111 7.211 A 0.553 0.553 0 0 0 46.055 7.208 L 45.527 7.208 A 1.473 1.473 0 0 0 44.22 7.972 Q 44.035 8.268 43.903 8.679 A 5.768 5.768 0 0 0 43.711 9.493 Z M 57.217 9.728 L 57.217 9.903 A 3.494 3.494 0 0 0 57.313 10.755 A 2.026 2.026 0 0 0 58.506 12.189 A 0.551 0.551 0 0 0 58.606 12.236 Q 58.798 12.309 59.209 12.364 Q 60.611 12.364 61.063 10.753 A 5.176 5.176 0 0 0 61.201 10.079 L 61.201 9.61 Q 61.201 7.735 59.443 7.325 L 58.975 7.325 A 2.421 2.421 0 0 0 58.086 7.696 Q 57.516 8.096 57.32 8.846 A 3.487 3.487 0 0 0 57.217 9.728 Z M 4.863 9.493 L 7.559 9.493 L 7.852 9.435 L 7.852 9.317 A 0.817 0.817 0 0 0 7.829 9.181 Q 7.692 8.562 6.737 5.423 A 534.526 534.526 0 0 0 6.387 4.278 L 6.211 4.278 A 0.089 0.089 0 0 0 6.154 4.324 Q 5.954 4.598 5.41 6.508 A 82.707 82.707 0 0 0 5.215 7.208 A 12.133 12.133 0 0 0 4.954 7.903 Q 4.843 8.225 4.733 8.593 A 26.239 26.239 0 0 0 4.512 9.376 A 0.971 0.971 0 0 0 4.639 9.443 Q 4.711 9.473 4.779 9.486 A 0.482 0.482 0 0 0 4.863 9.493 Z M 45.645 7.56 L 45.82 7.56 Q 46.47 7.56 46.952 8.232 A 2.821 2.821 0 0 1 47.051 8.38 A 0.084 0.084 0 0 0 47.028 8.383 Q 46.992 8.393 46.992 8.439 Q 46.89 8.388 46.568 8.337 A 7.19 7.19 0 0 0 46.465 8.321 A 1.316 1.316 0 0 0 45.255 9.014 Q 44.973 9.496 44.883 10.314 L 44.883 10.782 Q 44.883 11.282 45.024 11.64 A 1.499 1.499 0 0 0 45.117 11.837 L 45 11.896 A 2.272 2.272 0 0 1 44.122 10.45 A 3.518 3.518 0 0 1 44.063 9.786 A 3.419 3.419 0 0 1 44.152 8.968 Q 44.439 7.805 45.645 7.56 Z M 59.15 7.677 L 59.268 7.677 A 1.298 1.298 0 0 1 60.195 8.066 A 2.144 2.144 0 0 1 60.498 8.439 L 60.498 8.556 L 59.971 8.439 A 1.328 1.328 0 0 0 58.749 9.12 Q 58.593 9.382 58.499 9.746 A 4.296 4.296 0 0 0 58.389 10.372 L 58.389 10.724 A 60.848 60.848 0 0 1 58.428 11.033 Q 58.495 11.565 58.504 11.734 A 0.855 0.855 0 0 1 58.506 11.778 Q 57.568 11.178 57.568 9.845 Q 57.803 7.677 59.15 7.677 Z M 17.783 5.304 L 17.842 5.304 A 0.442 0.442 0 0 1 18.142 5.491 Q 18.677 6.101 19.515 8.692 A 54.154 54.154 0 0 1 19.775 9.523 Q 19.775 9.548 19.642 9.975 A 63.998 63.998 0 0 1 19.6 10.108 L 19.482 10.108 A 0.651 0.651 0 0 0 19.456 10.011 Q 19.27 9.418 17.783 5.304 Z M 5.918 9.083 L 5.039 9.083 L 5.039 9.024 Q 6.138 5.216 6.27 5.216 A 95.916 95.916 0 0 1 6.379 5.558 Q 6.733 6.667 6.738 6.795 A 0.088 0.088 0 0 1 6.738 6.798 Q 6.074 8.901 5.936 9.069 A 0.036 0.036 0 0 1 5.918 9.083 Z" vector-effect="non-scaling-stroke"/></g></svg>